<?xml version="1.0" encoding="UTF-8" standalone="no"?>
<!-- Created with Inkscape (http://www.inkscape.org/) -->

<svg
   xmlns:dc="http://purl.org/dc/elements/1.1/"
   xmlns:cc="http://creativecommons.org/ns#"
   xmlns:rdf="http://www.w3.org/1999/02/22-rdf-syntax-ns#"
   xmlns:svg="http://www.w3.org/2000/svg"
   xmlns="http://www.w3.org/2000/svg"
   xmlns:sodipodi="http://sodipodi.sourceforge.net/DTD/sodipodi-0.dtd"
   xmlns:inkscape="http://www.inkscape.org/namespaces/inkscape"
   width="141.25006"
   height="197.25081"
   id="svg2985"
   version="1.1"
   inkscape:version="0.48.1 r9760"
   sodipodi:docname="h_2.svg">
  <defs
     id="defs2987" />
  <sodipodi:namedview
     inkscape:document-units="mm"
     pagecolor="#ffffff"
     bordercolor="#666666"
     borderopacity="1.0"
     inkscape:pageopacity="0.0"
     inkscape:pageshadow="2"
     inkscape:zoom="1.2279853"
     inkscape:cx="107.83048"
     inkscape:cy="-6.0497432"
     inkscape:current-layer="layer1"
     id="namedview2989"
     showgrid="false"
     inkscape:window-width="1295"
     inkscape:window-height="849"
     inkscape:window-x="130"
     inkscape:window-y="97"
     inkscape:window-maximized="0"
     units="mm"
     fit-margin-top="0"
     fit-margin-left="0"
     fit-margin-right="0"
     fit-margin-bottom="0" />
  <metadata
     id="metadata2991">
    <rdf:RDF>
      <cc:Work
         rdf:about="">
        <dc:format>image/svg+xml</dc:format>
        <dc:type
           rdf:resource="http://purl.org/dc/dcmitype/StillImage" />
        <dc:title />
      </cc:Work>
    </rdf:RDF>
  </metadata>
  <g
     inkscape:label="Layer 1"
     inkscape:groupmode="layer"
     id="layer1"
     transform="translate(-317.4687,-30.499212)">
    <rect
       style="fill:#31a931;fill-opacity:1;stroke:#000000;stroke-width:1.24015749;stroke-linecap:butt;stroke-linejoin:round;stroke-miterlimit:4;stroke-opacity:1;stroke-dasharray:none;stroke-dashoffset:0"
       id="rect2994"
       width="140"
       height="196"
       x="318.10086"
       y="31.124372"
       ry="0" />
    <g
       style="font-size:172px;font-style:normal;font-variant:normal;font-weight:normal;font-stretch:normal;text-align:start;line-height:125%;letter-spacing:0px;word-spacing:0px;writing-mode:lr-tb;text-anchor:start;fill:#f9f9f9;fill-opacity:1;stroke:none;font-family:Nimbus Sans L;-inkscape-font-specification:Nimbus Sans L"
       id="text2983">
      <path
         d="m 428.77114,177.35296 -64.156,0 c 1.54799,-9.97599 7.05201,-16.34001 22.016,-25.112 l 17.2,-9.288 c 17.02798,-9.288 25.8,-21.84402 25.8,-36.808 0,-10.147994 -4.12801,-19.608011 -11.352,-26.144004 -7.224,-6.535994 -16.16802,-9.632 -27.692,-9.632 -15.47999,0 -27.00401,5.50401 -33.712,15.824 -4.3,6.535993 -6.192,14.104014 -6.536,26.488004 l 15.136,0 c 0.516,-8.256 1.548,-13.244008 3.612,-17.200004 3.95599,-7.395993 11.868,-11.868 20.984,-11.868 13.75998,0 24.08,9.804013 24.08,22.876004 0,9.63199 -5.67602,17.888 -16.512,24.08 l -15.824,8.944 c -25.45598,14.44798 -32.85201,25.97202 -34.228,52.804 l 81.184,0 0,-14.964"
         style=""
         id="path2988" />
    </g>
  </g>
</svg>
