<?xml version="1.0" encoding="UTF-8" standalone="no"?>
<!-- Created with Inkscape (http://www.inkscape.org/) -->

<svg
   xmlns:dc="http://purl.org/dc/elements/1.1/"
   xmlns:cc="http://creativecommons.org/ns#"
   xmlns:rdf="http://www.w3.org/1999/02/22-rdf-syntax-ns#"
   xmlns:svg="http://www.w3.org/2000/svg"
   xmlns="http://www.w3.org/2000/svg"
   xmlns:sodipodi="http://sodipodi.sourceforge.net/DTD/sodipodi-0.dtd"
   xmlns:inkscape="http://www.inkscape.org/namespaces/inkscape"
   width="141.25006"
   height="197.25081"
   id="svg2985"
   version="1.1"
   inkscape:version="0.48.1 r9760"
   sodipodi:docname="h_5.svg">
  <defs
     id="defs2987" />
  <sodipodi:namedview
     inkscape:document-units="mm"
     pagecolor="#ffffff"
     bordercolor="#666666"
     borderopacity="1.0"
     inkscape:pageopacity="0.0"
     inkscape:pageshadow="2"
     inkscape:zoom="1.2279853"
     inkscape:cx="107.83048"
     inkscape:cy="-6.0497432"
     inkscape:current-layer="layer1"
     id="namedview2989"
     showgrid="false"
     inkscape:window-width="1295"
     inkscape:window-height="849"
     inkscape:window-x="130"
     inkscape:window-y="97"
     inkscape:window-maximized="0"
     units="mm"
     fit-margin-top="0"
     fit-margin-left="0"
     fit-margin-right="0"
     fit-margin-bottom="0" />
  <metadata
     id="metadata2991">
    <rdf:RDF>
      <cc:Work
         rdf:about="">
        <dc:format>image/svg+xml</dc:format>
        <dc:type
           rdf:resource="http://purl.org/dc/dcmitype/StillImage" />
        <dc:title />
      </cc:Work>
    </rdf:RDF>
  </metadata>
  <g
     inkscape:label="Layer 1"
     inkscape:groupmode="layer"
     id="layer1"
     transform="translate(-317.4687,-30.499212)">
    <rect
       style="fill:#31a931;fill-opacity:1;stroke:#000000;stroke-width:1.24015749;stroke-linecap:butt;stroke-linejoin:round;stroke-miterlimit:4;stroke-opacity:1;stroke-dasharray:none;stroke-dashoffset:0"
       id="rect2994"
       width="140"
       height="196"
       x="318.10086"
       y="31.124372"
       ry="0" />
    <g
       style="font-size:172px;font-style:normal;font-variant:normal;font-weight:normal;font-stretch:normal;text-align:start;line-height:125%;letter-spacing:0px;word-spacing:0px;writing-mode:lr-tb;text-anchor:start;fill:#f9f9f9;fill-opacity:1;stroke:none;font-family:Nimbus Sans L;-inkscape-font-specification:Nimbus Sans L"
       id="text2983">
      <path
         d="m 423.43886,66.412947 -62.952,0 -9.116,66.392003 13.932,0 c 7.052,-8.42799 12.90001,-11.352 22.36,-11.352 16.33999,0 26.66,11.18001 26.66,29.24 0,17.54398 -10.14801,28.208 -26.66,28.208 -13.24398,0 -21.328,-6.70802 -24.94,-20.468 l -15.136,0 c 2.064,9.97599 3.78401,14.792 7.396,19.264 6.88,9.28799 19.26402,14.62 33.024,14.62 24.59598,0 41.796,-17.88803 41.796,-43.688 0,-24.07998 -15.99602,-40.592 -39.388,-40.592 -8.59999,0 -15.48,2.236 -22.532,7.396 l 4.816,-34.056003 50.74,0 0,-14.964"
         style=""
         id="path2988" />
    </g>
  </g>
</svg>
