<?xml version="1.0" encoding="UTF-8" standalone="no"?>
<!-- Created with Inkscape (http://www.inkscape.org/) -->

<svg
   xmlns:dc="http://purl.org/dc/elements/1.1/"
   xmlns:cc="http://creativecommons.org/ns#"
   xmlns:rdf="http://www.w3.org/1999/02/22-rdf-syntax-ns#"
   xmlns:svg="http://www.w3.org/2000/svg"
   xmlns="http://www.w3.org/2000/svg"
   xmlns:sodipodi="http://sodipodi.sourceforge.net/DTD/sodipodi-0.dtd"
   xmlns:inkscape="http://www.inkscape.org/namespaces/inkscape"
   width="141.25006"
   height="197.25081"
   id="svg2985"
   version="1.1"
   inkscape:version="0.48.1 r9760"
   sodipodi:docname="h_8.svg">
  <defs
     id="defs2987" />
  <sodipodi:namedview
     inkscape:document-units="mm"
     pagecolor="#ffffff"
     bordercolor="#666666"
     borderopacity="1.0"
     inkscape:pageopacity="0.0"
     inkscape:pageshadow="2"
     inkscape:zoom="1.2279853"
     inkscape:cx="107.83048"
     inkscape:cy="-6.0497432"
     inkscape:current-layer="layer1"
     id="namedview2989"
     showgrid="false"
     inkscape:window-width="1295"
     inkscape:window-height="849"
     inkscape:window-x="130"
     inkscape:window-y="97"
     inkscape:window-maximized="0"
     units="mm"
     fit-margin-top="0"
     fit-margin-left="0"
     fit-margin-right="0"
     fit-margin-bottom="0" />
  <metadata
     id="metadata2991">
    <rdf:RDF>
      <cc:Work
         rdf:about="">
        <dc:format>image/svg+xml</dc:format>
        <dc:type
           rdf:resource="http://purl.org/dc/dcmitype/StillImage" />
        <dc:title />
      </cc:Work>
    </rdf:RDF>
  </metadata>
  <g
     inkscape:label="Layer 1"
     inkscape:groupmode="layer"
     id="layer1"
     transform="translate(-317.4687,-30.499212)">
    <rect
       style="fill:#1941d6;fill-opacity:1;stroke:#000000;stroke-width:1.24015749;stroke-linecap:butt;stroke-linejoin:round;stroke-miterlimit:4;stroke-opacity:1;stroke-dasharray:none;stroke-dashoffset:0"
       id="rect2994"
       width="140"
       height="196"
       x="318.10086"
       y="31.124372"
       ry="0" />
    <g
       style="font-size:172px;font-style:normal;font-variant:normal;font-weight:normal;font-stretch:normal;text-align:start;line-height:125%;letter-spacing:0px;word-spacing:0px;writing-mode:lr-tb;text-anchor:start;fill:#f9f9f9;fill-opacity:1;stroke:none;font-family:Nimbus Sans L;-inkscape-font-specification:Nimbus Sans L"
       id="text2983">
      <path
         d="m 408.47487,124.20495 c 12.55599,-7.568 16.684,-13.76001 16.684,-25.284003 0,-19.091981 -14.96402,-32.508 -36.636,-32.508 -21.49998,0 -36.636,13.416019 -36.636,32.508 0,11.351993 4.12801,17.544003 16.512,25.284003 -13.93199,6.70799 -20.812,16.85601 -20.812,30.272 0,22.35997 16.85602,37.84 40.936,37.84 24.07998,0 40.936,-15.48003 40.936,-37.668 0,-13.58799 -6.88001,-23.73601 -20.984,-30.444 m -19.952,-44.376003 c 12.89999,0 21.156,7.568012 21.156,19.436 0,11.351993 -8.42801,18.920003 -21.156,18.920003 -12.72799,0 -21.156,-7.56801 -21.156,-19.092003 0,-11.695989 8.42801,-19.264 21.156,-19.264 m 0,51.084003 c 15.13598,0 25.456,9.63201 25.456,23.908 0,14.44798 -10.32002,24.08 -25.8,24.08 -14.79199,0 -25.112,-9.80402 -25.112,-24.08 0,-14.27599 10.32002,-23.908 25.456,-23.908"
         style=""
         id="path2988" />
    </g>
  </g>
</svg>
