<?xml version="1.0" encoding="UTF-8" standalone="no"?>
<!-- Created with Inkscape (http://www.inkscape.org/) -->

<svg
   xmlns:dc="http://purl.org/dc/elements/1.1/"
   xmlns:cc="http://creativecommons.org/ns#"
   xmlns:rdf="http://www.w3.org/1999/02/22-rdf-syntax-ns#"
   xmlns:svg="http://www.w3.org/2000/svg"
   xmlns="http://www.w3.org/2000/svg"
   xmlns:sodipodi="http://sodipodi.sourceforge.net/DTD/sodipodi-0.dtd"
   xmlns:inkscape="http://www.inkscape.org/namespaces/inkscape"
   width="141.25006"
   height="197.25081"
   id="svg2985"
   version="1.1"
   inkscape:version="0.48.1 r9760"
   sodipodi:docname="s_q.svg">
  <defs
     id="defs2987" />
  <sodipodi:namedview
     inkscape:document-units="mm"
     pagecolor="#ffffff"
     bordercolor="#666666"
     borderopacity="1.0"
     inkscape:pageopacity="0.0"
     inkscape:pageshadow="2"
     inkscape:zoom="1.2279853"
     inkscape:cx="107.83048"
     inkscape:cy="-6.0497432"
     inkscape:current-layer="layer1"
     id="namedview2989"
     showgrid="false"
     inkscape:window-width="1295"
     inkscape:window-height="849"
     inkscape:window-x="130"
     inkscape:window-y="97"
     inkscape:window-maximized="0"
     units="mm"
     fit-margin-top="0"
     fit-margin-left="0"
     fit-margin-right="0"
     fit-margin-bottom="0" />
  <metadata
     id="metadata2991">
    <rdf:RDF>
      <cc:Work
         rdf:about="">
        <dc:format>image/svg+xml</dc:format>
        <dc:type
           rdf:resource="http://purl.org/dc/dcmitype/StillImage" />
        <dc:title />
      </cc:Work>
    </rdf:RDF>
  </metadata>
  <g
     inkscape:label="Layer 1"
     inkscape:groupmode="layer"
     id="layer1"
     transform="translate(-317.4687,-30.499212)">
    <rect
       style="fill:#606060;fill-opacity:1;stroke:#000000;stroke-width:1.24015749;stroke-linecap:butt;stroke-linejoin:round;stroke-miterlimit:4;stroke-opacity:1;stroke-dasharray:none;stroke-dashoffset:0"
       id="rect2994"
       width="140"
       height="196"
       x="318.10086"
       y="31.124372"
       ry="0" />
    <g
       style="font-size:172px;font-style:normal;font-variant:normal;font-weight:normal;font-stretch:normal;text-align:start;line-height:125%;letter-spacing:0px;word-spacing:0px;writing-mode:lr-tb;text-anchor:start;fill:#f9f9f9;fill-opacity:1;stroke:none;font-family:Nimbus Sans L;-inkscape-font-specification:Nimbus Sans L"
       id="text2983"
       transform="translate(-0.88582551,6.0236219)">
      <path
         d="m 447.63862,182.34095 -16.168,-13.244 c 11.86799,-13.07199 17.716,-29.24002 17.716,-49.02 0,-38.871966 -24.42403,-65.360005 -60.544,-65.360005 -36.11996,0 -60.544,26.48804 -60.544,65.704005 0,39.21596 24.42404,65.704 60.544,65.704 12.38399,0 22.70401,-2.75201 32.852,-8.772 l 18.06,14.964 8.084,-9.976 m -43.344,-35.432 -7.912,9.632 12.728,10.664 c -7.39599,3.43999 -13.07201,4.816 -20.64,4.816 -26.65997,0 -44.376,-20.64004 -44.376,-51.6 0,-30.959974 17.88803,-51.600005 44.548,-51.600005 26.65998,0 44.548,20.640031 44.548,51.428005 0,16.16798 -4.30001,28.72401 -13.588,39.216 l -15.308,-12.556"
         id="path2986"
         inkscape:connector-curvature="0" />
    </g>
  </g>
</svg>
