<?xml version="1.0" encoding="UTF-8" standalone="no"?>
<!-- Created with Inkscape (http://www.inkscape.org/) --><svg height="190.00000" id="svg2" inkscape:version="0.41" sodipodi:docbase="/home/nicu/Desktop/cards" sodipodi:docname="h_5.svg" sodipodi:version="0.32" version="1.0" width="140.00000" x="0.0000000" xmlns="http://www.w3.org/2000/svg" xmlns:cc="http://web.resource.org/cc/" xmlns:dc="http://purl.org/dc/elements/1.1/" xmlns:inkscape="http://www.inkscape.org/namespaces/inkscape" xmlns:rdf="http://www.w3.org/1999/02/22-rdf-syntax-ns#" xmlns:sodipodi="http://inkscape.sourceforge.net/DTD/sodipodi-0.dtd" xmlns:svg="http://www.w3.org/2000/svg" xmlns:xlink="http://www.w3.org/1999/xlink" y="0.0000000">
  <metadata>
    <rdf:RDF xmlns:cc="http://web.resource.org/cc/" xmlns:dc="http://purl.org/dc/elements/1.1/" xmlns:rdf="http://www.w3.org/1999/02/22-rdf-syntax-ns#">
      <cc:Work rdf:about="">
        <dc:title>card</dc:title>
        <dc:description></dc:description>
        <dc:subject>
          <rdf:Bag>
            <rdf:li>card</rdf:li>
            <rdf:li>bordered</rdf:li>
          </rdf:Bag>
        </dc:subject>
        <dc:publisher>
          <cc:Agent rdf:about="http://www.openclipart.org/">
            <dc:title>Open Clip Art Library</dc:title>
          </cc:Agent>
        </dc:publisher>
        <dc:creator>
          <cc:Agent>
            <dc:title>Nicu Buculei</dc:title>
          </cc:Agent>
        </dc:creator>
        <dc:rights>
          <cc:Agent>
            <dc:title>Nicu Buculei</dc:title>
          </cc:Agent>
        </dc:rights>
        <dc:date></dc:date>
        <dc:format>image/svg+xml</dc:format>
        <dc:type rdf:resource="http://purl.org/dc/dcmitype/StillImage"/>
        <cc:license rdf:resource="http://web.resource.org/cc/PublicDomain"/>
        <dc:language>en</dc:language>
      </cc:Work>
      <cc:License rdf:about="http://web.resource.org/cc/PublicDomain">
        <cc:permits rdf:resource="http://web.resource.org/cc/Reproduction"/>
        <cc:permits rdf:resource="http://web.resource.org/cc/Distribution"/>
        <cc:permits rdf:resource="http://web.resource.org/cc/DerivativeWorks"/>
      </cc:License>
    </rdf:RDF>
  </metadata>
  <sodipodi:namedview bordercolor="#666666" borderopacity="1.0" id="base" inkscape:current-layer="svg2" inkscape:cx="70.000003" inkscape:cy="95.000000" inkscape:pageopacity="0.0" inkscape:pageshadow="2" inkscape:window-height="791" inkscape:window-width="1152" inkscape:window-x="0" inkscape:window-y="26" inkscape:zoom="1.9105263" pagecolor="#ffffff"/>
  <defs id="defs3">
    <linearGradient id="linearGradient3920">
      <stop id="stop3922" offset="0.0000000" style="stop-color:#ffffff;stop-opacity:1.0000000;"/>
      <stop id="stop3924" offset="1.0000000" style="stop-color:#ffffff;stop-opacity:0.0000000;"/>
    </linearGradient>
    <linearGradient id="linearGradient2060">
      <stop id="stop2062" offset="0.0000000" style="stop-color:#ebf0d0;stop-opacity:1.0000000;"/>
      <stop id="stop2064" offset="1.0000000" style="stop-color:#ffffeb;stop-opacity:1.0000000;"/>
    </linearGradient>
    <linearGradient id="linearGradient1575">
      <stop id="stop1576" offset="0.0000000" style="stop-color:#ffffff;stop-opacity:0.50000000;"/>
      <stop id="stop1577" offset="1.0000000" style="stop-color:#ffffff;stop-opacity:0.0000000;"/>
    </linearGradient>
    <linearGradient gradientTransform="translate(0.000000,-1.000000)" gradientUnits="userSpaceOnUse" id="linearGradient4853" x1="2.0000000" x2="109.00000" xlink:href="#linearGradient2060" y1="63.099518" y2="128.69501"/>
    <linearGradient gradientUnits="userSpaceOnUse" id="linearGradient3926" x1="233.88673" x2="159.43488" xlink:href="#linearGradient3920" y1="142.78372" y2="209.56096"/>
    <linearGradient gradientUnits="userSpaceOnUse" id="linearGradient1368" x1="233.88673" x2="159.43488" xlink:href="#linearGradient3920" y1="142.78372" y2="209.56096"/>
    <linearGradient gradientTransform="translate(0.000000,-1.000000)" gradientUnits="userSpaceOnUse" id="linearGradient1366" x1="2.0000000" x2="109.00000" xlink:href="#linearGradient2060" y1="63.099518" y2="128.69501"/>
    <linearGradient id="linearGradient1360">
      <stop id="stop1362" offset="0.0000000" style="stop-color:#ffffff;stop-opacity:0.50000000;"/>
      <stop id="stop1364" offset="1.0000000" style="stop-color:#ffffff;stop-opacity:0.0000000;"/>
    </linearGradient>
    <linearGradient id="linearGradient1354">
      <stop id="stop1356" offset="0.0000000" style="stop-color:#ebf0d0;stop-opacity:1.0000000;"/>
      <stop id="stop1358" offset="1.0000000" style="stop-color:#ffffeb;stop-opacity:1.0000000;"/>
    </linearGradient>
    <linearGradient gradientTransform="translate(0.000000,-1.000000)" gradientUnits="userSpaceOnUse" id="linearGradient1398" x1="2.0000000" x2="109.00000" xlink:href="#linearGradient2060" y1="63.099518" y2="128.69501"/>
    <linearGradient gradientTransform="translate(0.000000,-1.000000)" gradientUnits="userSpaceOnUse" id="linearGradient3955" x1="2.0000000" x2="109.00000" xlink:href="#linearGradient2060" y1="63.099518" y2="128.69501"/>
    <linearGradient id="linearGradient3891">
      <stop id="stop3893" offset="0.0000000" style="stop-color:#ebf0d0;stop-opacity:1.0000000;"/>
      <stop id="stop3895" offset="1.0000000" style="stop-color:#ffffeb;stop-opacity:1.0000000;"/>
    </linearGradient>
    <linearGradient id="linearGradient3897">
      <stop id="stop3899" offset="0.0000000" style="stop-color:#ffffff;stop-opacity:0.50000000;"/>
      <stop id="stop3901" offset="1.0000000" style="stop-color:#ffffff;stop-opacity:0.0000000;"/>
    </linearGradient>
    <linearGradient gradientTransform="translate(0.000000,-1.000000)" gradientUnits="userSpaceOnUse" id="linearGradient3903" x1="2.0000000" x2="109.00000" xlink:href="#linearGradient2060" y1="63.099518" y2="128.69501"/>
    <linearGradient gradientUnits="userSpaceOnUse" id="linearGradient3905" x1="233.88673" x2="159.43488" xlink:href="#linearGradient3920" y1="142.78372" y2="209.56096"/>
    <linearGradient gradientUnits="userSpaceOnUse" id="linearGradient3907" x1="233.88673" x2="159.43488" xlink:href="#linearGradient3920" y1="142.78372" y2="209.56096"/>
    <linearGradient gradientTransform="translate(0.000000,-1.000000)" gradientUnits="userSpaceOnUse" id="linearGradient3909" x1="2.0000000" x2="109.00000" xlink:href="#linearGradient2060" y1="63.099518" y2="128.69501"/>
    <linearGradient id="linearGradient3911">
      <stop id="stop3913" offset="0.0000000" style="stop-color:#ffffff;stop-opacity:0.50000000;"/>
      <stop id="stop3915" offset="1.0000000" style="stop-color:#ffffff;stop-opacity:0.0000000;"/>
    </linearGradient>
    <linearGradient id="linearGradient3917">
      <stop id="stop3919" offset="0.0000000" style="stop-color:#ebf0d0;stop-opacity:1.0000000;"/>
      <stop id="stop3921" offset="1.0000000" style="stop-color:#ffffeb;stop-opacity:1.0000000;"/>
    </linearGradient>
    <linearGradient gradientTransform="translate(0.000000,-1.000000)" gradientUnits="userSpaceOnUse" id="linearGradient3923" x1="2.0000000" x2="109.00000" xlink:href="#linearGradient2060" y1="63.099518" y2="128.69501"/>
    <linearGradient gradientTransform="translate(0.000000,-1.000000)" gradientUnits="userSpaceOnUse" id="linearGradient3454" x1="2.0000000" x2="109.00000" xlink:href="#linearGradient2060" y1="63.099518" y2="128.69501"/>
    <linearGradient id="linearGradient3390">
      <stop id="stop3392" offset="0.0000000" style="stop-color:#ebf0d0;stop-opacity:1.0000000;"/>
      <stop id="stop3394" offset="1.0000000" style="stop-color:#ffffeb;stop-opacity:1.0000000;"/>
    </linearGradient>
    <linearGradient id="linearGradient3396">
      <stop id="stop3398" offset="0.0000000" style="stop-color:#ffffff;stop-opacity:0.50000000;"/>
      <stop id="stop3400" offset="1.0000000" style="stop-color:#ffffff;stop-opacity:0.0000000;"/>
    </linearGradient>
    <linearGradient gradientTransform="translate(0.000000,-1.000000)" gradientUnits="userSpaceOnUse" id="linearGradient3402" x1="2.0000000" x2="109.00000" xlink:href="#linearGradient2060" y1="63.099518" y2="128.69501"/>
    <linearGradient gradientUnits="userSpaceOnUse" id="linearGradient3404" x1="233.88673" x2="159.43488" xlink:href="#linearGradient3920" y1="142.78372" y2="209.56096"/>
    <linearGradient gradientUnits="userSpaceOnUse" id="linearGradient3406" x1="233.88673" x2="159.43488" xlink:href="#linearGradient3920" y1="142.78372" y2="209.56096"/>
    <linearGradient gradientTransform="translate(0.000000,-1.000000)" gradientUnits="userSpaceOnUse" id="linearGradient3408" x1="2.0000000" x2="109.00000" xlink:href="#linearGradient2060" y1="63.099518" y2="128.69501"/>
    <linearGradient id="linearGradient3410">
      <stop id="stop3412" offset="0.0000000" style="stop-color:#ffffff;stop-opacity:0.50000000;"/>
      <stop id="stop3414" offset="1.0000000" style="stop-color:#ffffff;stop-opacity:0.0000000;"/>
    </linearGradient>
    <linearGradient id="linearGradient3416">
      <stop id="stop3418" offset="0.0000000" style="stop-color:#ebf0d0;stop-opacity:1.0000000;"/>
      <stop id="stop3420" offset="1.0000000" style="stop-color:#ffffeb;stop-opacity:1.0000000;"/>
    </linearGradient>
    <linearGradient gradientTransform="translate(0.000000,-1.000000)" gradientUnits="userSpaceOnUse" id="linearGradient3422" x1="2.0000000" x2="109.00000" xlink:href="#linearGradient2060" y1="63.099518" y2="128.69501"/>
    <linearGradient gradientTransform="translate(0.000000,-1.000000)" gradientUnits="userSpaceOnUse" id="linearGradient2595" x1="2.0000000" x2="109.00000" xlink:href="#linearGradient2060" y1="63.099518" y2="128.69501"/>
    <linearGradient id="linearGradient2535">
      <stop id="stop2537" offset="0.0000000" style="stop-color:#ebf0d0;stop-opacity:1.0000000;"/>
      <stop id="stop2539" offset="1.0000000" style="stop-color:#ffffeb;stop-opacity:1.0000000;"/>
    </linearGradient>
    <linearGradient id="linearGradient2541">
      <stop id="stop2543" offset="0.0000000" style="stop-color:#ffffff;stop-opacity:0.50000000;"/>
      <stop id="stop2545" offset="1.0000000" style="stop-color:#ffffff;stop-opacity:0.0000000;"/>
    </linearGradient>
    <linearGradient gradientTransform="translate(0.000000,-1.000000)" gradientUnits="userSpaceOnUse" id="linearGradient2547" x1="2.0000000" x2="109.00000" xlink:href="#linearGradient2060" y1="63.099518" y2="128.69501"/>
    <linearGradient gradientUnits="userSpaceOnUse" id="linearGradient2549" x1="233.88673" x2="159.43488" xlink:href="#linearGradient3920" y1="142.78372" y2="209.56096"/>
    <linearGradient gradientUnits="userSpaceOnUse" id="linearGradient2551" x1="233.88673" x2="159.43488" xlink:href="#linearGradient3920" y1="142.78372" y2="209.56096"/>
    <linearGradient gradientTransform="translate(0.000000,-1.000000)" gradientUnits="userSpaceOnUse" id="linearGradient2553" x1="2.0000000" x2="109.00000" xlink:href="#linearGradient2060" y1="63.099518" y2="128.69501"/>
    <linearGradient id="linearGradient2555">
      <stop id="stop2557" offset="0.0000000" style="stop-color:#ffffff;stop-opacity:0.50000000;"/>
      <stop id="stop2559" offset="1.0000000" style="stop-color:#ffffff;stop-opacity:0.0000000;"/>
    </linearGradient>
    <linearGradient id="linearGradient2561">
      <stop id="stop2563" offset="0.0000000" style="stop-color:#ebf0d0;stop-opacity:1.0000000;"/>
      <stop id="stop2565" offset="1.0000000" style="stop-color:#ffffeb;stop-opacity:1.0000000;"/>
    </linearGradient>
    <linearGradient gradientTransform="translate(0.000000,-1.000000)" gradientUnits="userSpaceOnUse" id="linearGradient2567" x1="2.0000000" x2="109.00000" xlink:href="#linearGradient2060" y1="63.099518" y2="128.69501"/>
    <linearGradient id="linearGradient2318">
      <stop id="stop2320" offset="0.0000000" style="stop-color:#ebf0d0;stop-opacity:1.0000000;"/>
      <stop id="stop2322" offset="1.0000000" style="stop-color:#ffffeb;stop-opacity:1.0000000;"/>
    </linearGradient>
    <linearGradient id="linearGradient2324">
      <stop id="stop2326" offset="0.0000000" style="stop-color:#ffffff;stop-opacity:0.50000000;"/>
      <stop id="stop2328" offset="1.0000000" style="stop-color:#ffffff;stop-opacity:0.0000000;"/>
    </linearGradient>
    <linearGradient gradientTransform="translate(0.000000,-1.000000)" gradientUnits="userSpaceOnUse" id="linearGradient2330" x1="2.0000000" x2="109.00000" xlink:href="#linearGradient2060" y1="63.099518" y2="128.69501"/>
    <linearGradient gradientUnits="userSpaceOnUse" id="linearGradient2332" x1="233.88673" x2="159.43488" xlink:href="#linearGradient3920" y1="142.78372" y2="209.56096"/>
    <linearGradient gradientUnits="userSpaceOnUse" id="linearGradient2334" x1="233.88673" x2="159.43488" xlink:href="#linearGradient3920" y1="142.78372" y2="209.56096"/>
    <linearGradient gradientTransform="translate(0.000000,-1.000000)" gradientUnits="userSpaceOnUse" id="linearGradient2336" x1="2.0000000" x2="109.00000" xlink:href="#linearGradient2060" y1="63.099518" y2="128.69501"/>
    <linearGradient id="linearGradient2338">
      <stop id="stop2340" offset="0.0000000" style="stop-color:#ffffff;stop-opacity:0.50000000;"/>
      <stop id="stop2342" offset="1.0000000" style="stop-color:#ffffff;stop-opacity:0.0000000;"/>
    </linearGradient>
    <linearGradient id="linearGradient2344">
      <stop id="stop2346" offset="0.0000000" style="stop-color:#ebf0d0;stop-opacity:1.0000000;"/>
      <stop id="stop2348" offset="1.0000000" style="stop-color:#ffffeb;stop-opacity:1.0000000;"/>
    </linearGradient>
    <linearGradient gradientTransform="translate(0.000000,-1.000000)" gradientUnits="userSpaceOnUse" id="linearGradient2350" x1="2.0000000" x2="109.00000" xlink:href="#linearGradient2060" y1="63.099518" y2="128.69501"/>
    <linearGradient gradientTransform="translate(0.000000,-1.000000)" gradientUnits="userSpaceOnUse" id="linearGradient3485" x1="2.0000000" x2="109.00000" xlink:href="#linearGradient2060" y1="63.099518" y2="128.69501"/>
    <linearGradient id="linearGradient3479">
      <stop id="stop3481" offset="0.0000000" style="stop-color:#ebf0d0;stop-opacity:1.0000000;"/>
      <stop id="stop3483" offset="1.0000000" style="stop-color:#ffffeb;stop-opacity:1.0000000;"/>
    </linearGradient>
    <linearGradient id="linearGradient3473">
      <stop id="stop3475" offset="0.0000000" style="stop-color:#ffffff;stop-opacity:0.50000000;"/>
      <stop id="stop3477" offset="1.0000000" style="stop-color:#ffffff;stop-opacity:0.0000000;"/>
    </linearGradient>
    <linearGradient gradientTransform="translate(0.000000,-1.000000)" gradientUnits="userSpaceOnUse" id="linearGradient3471" x1="2.0000000" x2="109.00000" xlink:href="#linearGradient2060" y1="63.099518" y2="128.69501"/>
    <linearGradient gradientUnits="userSpaceOnUse" id="linearGradient3469" x1="233.88673" x2="159.43488" xlink:href="#linearGradient3920" y1="142.78372" y2="209.56096"/>
    <linearGradient gradientUnits="userSpaceOnUse" id="linearGradient3467" x1="233.88673" x2="159.43488" xlink:href="#linearGradient3920" y1="142.78372" y2="209.56096"/>
    <linearGradient gradientTransform="translate(0.000000,-1.000000)" gradientUnits="userSpaceOnUse" id="linearGradient3465" x1="2.0000000" x2="109.00000" xlink:href="#linearGradient2060" y1="63.099518" y2="128.69501"/>
    <linearGradient id="linearGradient3459">
      <stop id="stop3461" offset="0.0000000" style="stop-color:#ffffff;stop-opacity:0.50000000;"/>
      <stop id="stop3463" offset="1.0000000" style="stop-color:#ffffff;stop-opacity:0.0000000;"/>
    </linearGradient>
    <linearGradient id="linearGradient3453">
      <stop id="stop3455" offset="0.0000000" style="stop-color:#ebf0d0;stop-opacity:1.0000000;"/>
      <stop id="stop3457" offset="1.0000000" style="stop-color:#ffffeb;stop-opacity:1.0000000;"/>
    </linearGradient>
    <linearGradient gradientTransform="translate(0.000000,-1.000000)" gradientUnits="userSpaceOnUse" id="linearGradient3592" x1="2.0000000" x2="109.00000" xlink:href="#linearGradient2060" y1="63.099518" y2="128.69501"/>
  </defs>
  <g id="g5630">
    <path d="M 21.000000,5.0000000 L 124.00000,5.0000000 C 132.86400,5.0000000 140.00000,12.136000 140.00000,21.000000 L 140.00000,174.00000 C 140.00000,182.86400 132.86400,190.00000 124.00000,190.00000 L 21.000000,190.00000 C 12.136000,190.00000 5.0000000,182.86400 5.0000000,174.00000 L 5.0000000,21.000000 C 5.0000000,12.136000 12.136000,5.0000000 21.000000,5.0000000 z " id="rect2070" style="fill:#000000;fill-opacity:0.49803922;stroke:none;stroke-width:0.20000000;stroke-miterlimit:4.0000000;stroke-dashoffset:0.0000000;stroke-opacity:1.0000000"/>
    <path d="M 17.000000,1.0000000 L 120.00000,1.0000000 C 128.86400,1.0000000 136.00000,8.1360000 136.00000,17.000000 L 136.00000,170.00000 C 136.00000,178.86400 128.86400,186.00000 120.00000,186.00000 L 17.000000,186.00000 C 8.1360000,186.00000 1.0000000,178.86400 1.0000000,170.00000 L 1.0000000,17.000000 C 1.0000000,8.1360000 8.1360000,1.0000000 17.000000,1.0000000 z " id="rect1300" style="fill:#ffffff;fill-opacity:1.0000000;stroke:none;stroke-width:0.20000000;stroke-miterlimit:4.0000000;stroke-dashoffset:0.0000000;stroke-opacity:1.0000000"/>
    <path d="M 19.000000,3.0000000 L 122.00000,3.0000000 C 130.86400,3.0000000 138.00000,10.136000 138.00000,19.000000 L 138.00000,172.00000 C 138.00000,180.86400 130.86400,188.00000 122.00000,188.00000 L 19.000000,188.00000 C 10.136000,188.00000 3.0000000,180.86400 3.0000000,172.00000 L 3.0000000,19.000000 C 3.0000000,10.136000 10.136000,3.0000000 19.000000,3.0000000 z " id="path5624" style="fill:#c7891f;fill-opacity:1.0000000;stroke:none;stroke-width:0.20000000;stroke-miterlimit:4.0000000;stroke-dashoffset:0.0000000;stroke-opacity:1.0000000"/>
    <path d="M 18.000000,1.9999995 L 121.00000,1.9999995 C 129.86400,1.9999995 137.00000,9.1359995 137.00000,18.000000 L 137.00000,171.00000 C 137.00000,179.86400 129.86400,187.00000 121.00000,187.00000 L 18.000000,187.00000 C 9.1360000,187.00000 2.0000000,179.86400 2.0000000,171.00000 L 2.0000000,18.000000 C 2.0000000,9.1359995 9.1360000,1.9999995 18.000000,1.9999995 z " id="rect1306" style="fill:url(#linearGradient4853);fill-opacity:1.0000000;stroke:none;stroke-width:0.20000000;stroke-miterlimit:4.0000000;stroke-dashoffset:0.0000000;stroke-opacity:1.0000000"/>
    <path d="M 53.000000,31.000000 C 43.599297,31.000000 36.000000,38.599297 36.000000,48.000000 L 36.000000,141.00000 C 36.000000,150.40070 43.599297,158.00000 53.000000,158.00000 L 86.000000,158.00000 C 95.400703,158.00000 103.00000,150.40070 103.00000,141.00000 L 103.00000,48.000000 C 103.00000,38.599297 95.400703,31.000000 86.000000,31.000000 L 53.000000,31.000000 z M 53.000000,33.000000 L 86.000000,33.000000 C 94.327297,33.000000 101.00000,39.672703 101.00000,48.000000 L 101.00000,141.00000 C 101.00000,149.32730 94.327297,156.00000 86.000000,156.00000 L 53.000000,156.00000 C 44.672703,156.00000 38.000000,149.32730 38.000000,141.00000 L 38.000000,48.000000 C 38.000000,39.672703 44.672703,33.000000 53.000000,33.000000 z " id="rect2941" style="fill:#4f00a4;fill-opacity:1.0000000;stroke:none;stroke-width:2.0000000;stroke-miterlimit:4.0000000;stroke-dashoffset:0.0000000;stroke-opacity:1.0000000"/>
  </g>
  <path d="M 12.603619,11.998106 L 28.502498,11.998106 L 28.502498,17.684585 L 17.703886,17.684585 L 17.703886,22.326199 C 18.191199,22.165471 18.678521,22.044909 19.165852,21.964515 C 19.664239,21.870765 20.179249,21.823880 20.710884,21.823860 C 23.734481,21.823880 26.088022,22.741486 27.771515,24.576678 C 29.454970,26.398511 30.296708,28.943694 30.296729,32.212234 C 30.296708,35.454003 29.377442,37.992487 27.538929,39.827697 C 25.711455,41.662909 23.169631,42.580515 19.913449,42.580515 C 18.506850,42.580515 17.111339,42.413069 15.726910,42.078176 C 14.353543,41.756679 12.985720,41.261039 11.623437,40.591252 L 11.623437,34.502900 C 12.974644,35.440608 14.253863,36.143882 15.461098,36.612725 C 16.679395,37.081580 17.825708,37.316005 18.900040,37.316000 C 20.450599,37.316005 21.668902,36.860551 22.554955,35.949638 C 23.452056,35.025341 23.900613,33.779541 23.900628,32.212234 C 23.900613,30.631552 23.452056,29.385751 22.554955,28.474831 C 21.668902,27.563937 20.450599,27.108483 18.900040,27.108468 C 17.980765,27.108483 17.000585,27.255836 15.959495,27.550527 C 14.918392,27.831851 13.799768,28.273909 12.603619,28.876702 L 12.603619,11.998106" id="text1386" style="font-size:37.418461;font-style:normal;font-variant:normal;font-weight:bold;font-stretch:normal;fill:#ff0000;fill-opacity:1.0000000;stroke:none;stroke-width:1.0000000px;stroke-linecap:butt;stroke-linejoin:miter;stroke-opacity:1.0000000;font-family:Bitstream Vera Sans;text-anchor:start;writing-mode:lr-tb"/>
  <g id="g1390" style="fill:#ff0000;fill-opacity:1.0000000" transform="matrix(0.286388,0.000000,0.000000,0.388772,-29.60833,-9.472414)">
    <path d="M 147.20601,156.41679 C 144.67035,156.42954 141.88421,156.89888 138.79976,157.94804 C 105.17650,177.48492 150.50459,208.98936 169.64351,236.04179 L 170.19602,236.18010 C 191.22900,206.61098 231.26801,174.07246 200.67476,157.94804 C 176.43799,149.70401 169.96344,177.14611 169.73726,178.13554 C 169.53987,177.27202 164.59485,156.32936 147.20601,156.41679 z " id="path1392" style="fill-rule:evenodd;stroke:none;stroke-width:3.4289415;stroke-linecap:butt;stroke-linejoin:round;stroke-miterlimit:4.0000000;stroke-opacity:1.0000000" transform="matrix(1.105375,0.000000,0.000000,1.079637,-12.01415,-18.86731)"/>
  </g>
  <path d="M 126.26183,177.00182 L 110.36296,177.00182 L 110.36296,171.31535 L 121.16156,171.31535 L 121.16156,166.67373 C 120.67425,166.83445 120.18693,166.95502 119.69960,167.03541 C 119.20121,167.12916 118.68621,167.17605 118.15457,167.17606 C 115.13097,167.17605 112.77743,166.25844 111.09394,164.42325 C 109.41048,162.60141 108.56874,160.05623 108.56873,156.78770 C 108.56874,153.54592 109.48801,151.00744 111.32652,149.17223 C 113.15400,147.33702 115.69582,146.41942 118.95201,146.41942 C 120.35860,146.41942 121.75411,146.58686 123.13854,146.92176 C 124.51191,147.24325 125.87974,147.73888 127.24201,148.40868 L 127.24201,154.49703 C 125.89081,153.55932 124.61159,152.85605 123.40435,152.38721 C 122.18606,151.91834 121.03975,151.68393 119.96541,151.68393 C 118.41486,151.68393 117.19655,152.13938 116.31050,153.05029 C 115.41340,153.97459 114.96484,155.22039 114.96482,156.78770 C 114.96484,158.36837 115.41340,159.61418 116.31050,160.52510 C 117.19655,161.43599 118.41486,161.89145 119.96541,161.89146 C 120.88469,161.89145 121.86487,161.74409 122.90596,161.44941 C 123.94706,161.16808 125.06568,160.72602 126.26183,160.12323 L 126.26183,177.00182" id="text13635" style="font-size:37.418461;font-style:normal;font-variant:normal;font-weight:bold;font-stretch:normal;fill:#ff0000;fill-opacity:1.0000000;stroke:none;stroke-width:1.0000000px;stroke-linecap:butt;stroke-linejoin:miter;stroke-opacity:1.0000000;font-family:Bitstream Vera Sans;text-anchor:start;writing-mode:lr-tb"/>
  <g id="g13639" style="fill:#ff0000;fill-opacity:1.0000000" transform="matrix(-0.286388,0.000000,0.000000,-0.388772,168.4700,198.3135)">
    <path d="M 147.20601,156.41679 C 144.67035,156.42954 141.88421,156.89888 138.79976,157.94804 C 105.17650,177.48492 150.50459,208.98936 169.64351,236.04179 L 170.19602,236.18010 C 191.22900,206.61098 231.26801,174.07246 200.67476,157.94804 C 176.43799,149.70401 169.96344,177.14611 169.73726,178.13554 C 169.53987,177.27202 164.59485,156.32936 147.20601,156.41679 z " id="path13641" style="fill-rule:evenodd;stroke:none;stroke-width:3.4289415;stroke-linecap:butt;stroke-linejoin:round;stroke-miterlimit:4.0000000;stroke-opacity:1.0000000" transform="matrix(1.105375,0.000000,0.000000,1.079637,-12.01415,-18.86731)"/>
  </g>
  <g id="g3558">
    <g id="g2352" transform="translate(333.5000,184.5000)"/>
    <g id="g2569">
      <g id="g3424">
        <g id="g3925" transform="translate(329.5000,183.5000)"/>
      </g>
    </g>
  </g>
  <g id="g1861" style="fill-opacity:1.0000000;fill:#ff0000" transform="matrix(0.166355,0.000000,0.000000,0.229660,22.05389,10.77234)">
    <path d="M 147.20601,156.41679 C 144.67035,156.42954 141.88421,156.89888 138.79976,157.94804 C 105.17650,177.48492 150.50459,208.98936 169.64351,236.04179 L 170.19602,236.18010 C 191.22900,206.61098 231.26801,174.07246 200.67476,157.94804 C 176.43799,149.70401 169.96344,177.14611 169.73726,178.13554 C 169.53987,177.27202 164.59485,156.32936 147.20601,156.41679 z " id="path1863" style="fill-rule:evenodd;stroke:none;stroke-width:3.4289415;stroke-linecap:butt;stroke-linejoin:round;stroke-miterlimit:4.0000000;stroke-opacity:1.0000000" transform="matrix(1.105375,0.000000,0.000000,1.079637,-12.01415,-18.86731)"/>
  </g>
  <g id="g3606" style="fill-opacity:1.0000000;fill:#ff0000" transform="matrix(0.166355,0.000000,0.000000,0.229660,58.05389,10.77234)">
    <path d="M 147.20601,156.41679 C 144.67035,156.42954 141.88421,156.89888 138.79976,157.94804 C 105.17650,177.48492 150.50459,208.98936 169.64351,236.04179 L 170.19602,236.18010 C 191.22900,206.61098 231.26801,174.07246 200.67476,157.94804 C 176.43799,149.70401 169.96344,177.14611 169.73726,178.13554 C 169.53987,177.27202 164.59485,156.32936 147.20601,156.41679 z " id="path3608" style="fill-rule:evenodd;stroke:none;stroke-width:3.4289415;stroke-linecap:butt;stroke-linejoin:round;stroke-miterlimit:4.0000000;stroke-opacity:1.0000000" transform="matrix(1.105375,0.000000,0.000000,1.079637,-12.01415,-18.86731)"/>
  </g>
  <g id="g3610" style="fill-opacity:1.0000000;fill:#ff0000" transform="matrix(0.166355,0.000000,0.000000,0.229660,40.69390,47.77234)">
    <path d="M 147.20601,156.41679 C 144.67035,156.42954 141.88421,156.89888 138.79976,157.94804 C 105.17650,177.48492 150.50459,208.98936 169.64351,236.04179 L 170.19602,236.18010 C 191.22900,206.61098 231.26801,174.07246 200.67476,157.94804 C 176.43799,149.70401 169.96344,177.14611 169.73726,178.13554 C 169.53987,177.27202 164.59485,156.32936 147.20601,156.41679 z " id="path3612" style="fill-rule:evenodd;stroke:none;stroke-width:3.4289415;stroke-linecap:butt;stroke-linejoin:round;stroke-miterlimit:4.0000000;stroke-opacity:1.0000000" transform="matrix(1.105375,0.000000,0.000000,1.079637,-12.01415,-18.86731)"/>
  </g>
  <g id="g3614" style="fill-opacity:1.0000000;fill:#ff0000" transform="matrix(-0.166355,0.000000,0.000000,-0.229660,82.30610,176.2277)">
    <path d="M 147.20601,156.41679 C 144.67035,156.42954 141.88421,156.89888 138.79976,157.94804 C 105.17650,177.48492 150.50459,208.98936 169.64351,236.04179 L 170.19602,236.18010 C 191.22900,206.61098 231.26801,174.07246 200.67476,157.94804 C 176.43799,149.70401 169.96344,177.14611 169.73726,178.13554 C 169.53987,177.27202 164.59485,156.32936 147.20601,156.41679 z " id="path3616" style="fill-rule:evenodd;stroke:none;stroke-width:3.4289415;stroke-linecap:butt;stroke-linejoin:round;stroke-miterlimit:4.0000000;stroke-opacity:1.0000000" transform="matrix(1.105375,0.000000,0.000000,1.079637,-12.01415,-18.86731)"/>
  </g>
  <g id="g3618" style="fill-opacity:1.0000000;fill:#ff0000" transform="matrix(-0.166355,0.000000,0.000000,-0.229660,117.3061,176.2277)">
    <path d="M 147.20601,156.41679 C 144.67035,156.42954 141.88421,156.89888 138.79976,157.94804 C 105.17650,177.48492 150.50459,208.98936 169.64351,236.04179 L 170.19602,236.18010 C 191.22900,206.61098 231.26801,174.07246 200.67476,157.94804 C 176.43799,149.70401 169.96344,177.14611 169.73726,178.13554 C 169.53987,177.27202 164.59485,156.32936 147.20601,156.41679 z " id="path3620" style="fill-rule:evenodd;stroke:none;stroke-width:3.4289415;stroke-linecap:butt;stroke-linejoin:round;stroke-miterlimit:4.0000000;stroke-opacity:1.0000000" transform="matrix(1.105375,0.000000,0.000000,1.079637,-12.01415,-18.86731)"/>
  </g>
</svg>
