<?xml version="1.0" encoding="UTF-8" standalone="no"?>
<!-- Created with Inkscape (http://www.inkscape.org/) --><svg height="190.00000" id="svg2" inkscape:version="0.41+cvs" sodipodi:docbase="/home/nicu/Desktop/card_nicu_buculei_01.zip_FILES/cards/bordered" sodipodi:docname="bordered_s_q.svg" sodipodi:version="0.32" version="1.0" width="140.00000" x="0.0000000" xmlns="http://www.w3.org/2000/svg" xmlns:cc="http://web.resource.org/cc/" xmlns:dc="http://purl.org/dc/elements/1.1/" xmlns:inkscape="http://www.inkscape.org/namespaces/inkscape" xmlns:rdf="http://www.w3.org/1999/02/22-rdf-syntax-ns#" xmlns:sodipodi="http://inkscape.sourceforge.net/DTD/sodipodi-0.dtd" xmlns:svg="http://www.w3.org/2000/svg" xmlns:xlink="http://www.w3.org/1999/xlink" y="0.0000000">
  <metadata>
    <rdf:RDF xmlns:cc="http://web.resource.org/cc/" xmlns:dc="http://purl.org/dc/elements/1.1/" xmlns:rdf="http://www.w3.org/1999/02/22-rdf-syntax-ns#">
      <cc:Work rdf:about="">
        <dc:title>card</dc:title>
        <dc:description></dc:description>
        <dc:subject>
          <rdf:Bag>
            <rdf:li>card</rdf:li>
            <rdf:li>bordered</rdf:li>
          </rdf:Bag>
        </dc:subject>
        <dc:publisher>
          <cc:Agent rdf:about="http://www.openclipart.org/">
            <dc:title>Open Clip Art Library</dc:title>
          </cc:Agent>
        </dc:publisher>
        <dc:creator>
          <cc:Agent>
            <dc:title>Nicu Buculei</dc:title>
          </cc:Agent>
        </dc:creator>
        <dc:rights>
          <cc:Agent>
            <dc:title>Nicu Buculei</dc:title>
          </cc:Agent>
        </dc:rights>
        <dc:date></dc:date>
        <dc:format>image/svg+xml</dc:format>
        <dc:type rdf:resource="http://purl.org/dc/dcmitype/StillImage"/>
        <cc:license rdf:resource="http://web.resource.org/cc/PublicDomain"/>
        <dc:language>en</dc:language>
      </cc:Work>
      <cc:License rdf:about="http://web.resource.org/cc/PublicDomain">
        <cc:permits rdf:resource="http://web.resource.org/cc/Reproduction"/>
        <cc:permits rdf:resource="http://web.resource.org/cc/Distribution"/>
        <cc:permits rdf:resource="http://web.resource.org/cc/DerivativeWorks"/>
      </cc:License>
    </rdf:RDF>
  </metadata>
  <sodipodi:namedview bordercolor="#666666" borderopacity="1.0" id="base" inkscape:current-layer="svg2" inkscape:cx="157.00003" inkscape:cy="95.000000" inkscape:pageopacity="0.0" inkscape:pageshadow="2" inkscape:window-height="791" inkscape:window-width="1152" inkscape:window-x="0" inkscape:window-y="26" inkscape:zoom="1.0000000" pagecolor="#ffffff"/>
  <defs id="defs3">
    <linearGradient id="linearGradient2060">
      <stop id="stop2062" offset="0.0000000" style="stop-color:#ebf0d0;stop-opacity:1.0000000;"/>
      <stop id="stop2064" offset="1.0000000" style="stop-color:#ffffeb;stop-opacity:1.0000000;"/>
    </linearGradient>
    <linearGradient gradientTransform="translate(0.000000,-1.000000)" gradientUnits="userSpaceOnUse" id="linearGradient4853" x1="2.0000000" x2="109.00000" xlink:href="#linearGradient2060" y1="63.099518" y2="128.69501"/>
    <linearGradient id="linearGradient6214">
      <stop id="stop6216" offset="0.0000000" style="stop-color:#c10000;stop-opacity:1.0000000;"/>
      <stop id="stop6218" offset="1.0000000" style="stop-color:#ff433e;stop-opacity:1.0000000;"/>
    </linearGradient>
    <linearGradient id="linearGradient5417">
      <stop id="stop5419" offset="0.0000000" style="stop-color:#f0a700;stop-opacity:1.0000000;"/>
      <stop id="stop5421" offset="1.0000000" style="stop-color:#ffed00;stop-opacity:1.0000000;"/>
    </linearGradient>
    <linearGradient id="linearGradient5407">
      <stop id="stop5409" offset="0.0000000" style="stop-color:#f0eb00;stop-opacity:1.0000000;"/>
      <stop id="stop5411" offset="1.0000000" style="stop-color:#ffff00;stop-opacity:1.0000000;"/>
    </linearGradient>
    <linearGradient id="linearGradient3857">
      <stop id="stop3859" offset="0.0000000" style="stop-color:#ffd8c1;stop-opacity:1.0000000;"/>
      <stop id="stop3861" offset="1.0000000" style="stop-color:#ffeded;stop-opacity:1.0000000;"/>
    </linearGradient>
    <linearGradient id="linearGradient2580" inkscape:collect="always">
      <stop id="stop2582" offset="0" style="stop-color:#ffffff;stop-opacity:1;"/>
      <stop id="stop2584" offset="1" style="stop-color:#ffffff;stop-opacity:0;"/>
    </linearGradient>
    <linearGradient id="linearGradient3196">
      <stop id="stop3198" offset="0.0000000" style="stop-color:#008200;stop-opacity:1.0000000;"/>
      <stop id="stop3200" offset="1.0000000" style="stop-color:#00d000;stop-opacity:1.0000000;"/>
    </linearGradient>
    <linearGradient gradientTransform="matrix(0.186825,0.000000,0.000000,0.144857,9.088650,209.5334)" gradientUnits="userSpaceOnUse" id="linearGradient34413" inkscape:collect="always" x1="356.44232" x2="484.79608" xlink:href="#linearGradient3857" y1="437.49887" y2="256.17966"/>
    <linearGradient gradientTransform="matrix(0.144857,0.000000,0.000000,0.144857,34.48385,222.1738)" gradientUnits="userSpaceOnUse" id="linearGradient34415" inkscape:collect="always" x1="298.98572" x2="449.32318" xlink:href="#linearGradient3196" y1="540.53918" y2="415.53949"/>
    <linearGradient gradientUnits="userSpaceOnUse" id="linearGradient34417" inkscape:collect="always" x1="632.00000" x2="698.00000" xlink:href="#linearGradient5417" y1="146.36218" y2="85.362183"/>
    <linearGradient gradientUnits="userSpaceOnUse" id="linearGradient34419" inkscape:collect="always" x1="653.00000" x2="708.00000" xlink:href="#linearGradient5407" y1="210.36218" y2="160.36218"/>
    <linearGradient gradientTransform="matrix(0.144857,0.000000,0.000000,0.144857,31.88155,221.5233)" gradientUnits="userSpaceOnUse" id="linearGradient34421" inkscape:collect="always" x1="294.24606" x2="312.09238" xlink:href="#linearGradient6214" y1="346.32654" y2="322.13895"/>
    <linearGradient gradientTransform="translate(21.43750,166.2081)" gradientUnits="userSpaceOnUse" id="linearGradient34423" inkscape:collect="always" x1="53.127300" x2="65.800056" xlink:href="#linearGradient3857" y1="122.47619" y2="113.28660"/>
    <linearGradient gradientTransform="translate(178.4375,157.2110)" gradientUnits="userSpaceOnUse" id="linearGradient34425" inkscape:collect="always" x1="-21.763636" x2="-101.90910" xlink:href="#linearGradient2580" y1="46.290909" y2="98.109093"/>
    <linearGradient gradientTransform="translate(0.000000,-1.000000)" gradientUnits="userSpaceOnUse" id="linearGradient3175" inkscape:collect="always" x1="2.0000000" x2="109.00000" xlink:href="#linearGradient2060" y1="63.099518" y2="128.69501"/>
    <linearGradient gradientTransform="matrix(0.186825,0.000000,0.000000,0.144857,9.088650,209.5334)" gradientUnits="userSpaceOnUse" id="linearGradient3177" inkscape:collect="always" x1="356.44232" x2="484.79608" xlink:href="#linearGradient3857" y1="437.49887" y2="256.17966"/>
    <linearGradient gradientTransform="matrix(0.144857,0.000000,0.000000,0.144857,34.48385,222.1738)" gradientUnits="userSpaceOnUse" id="linearGradient3179" inkscape:collect="always" x1="298.98572" x2="449.32318" xlink:href="#linearGradient3196" y1="540.53918" y2="415.53949"/>
    <linearGradient gradientUnits="userSpaceOnUse" id="linearGradient3181" inkscape:collect="always" x1="632.00000" x2="698.00000" xlink:href="#linearGradient5417" y1="146.36218" y2="85.362183"/>
    <linearGradient gradientUnits="userSpaceOnUse" id="linearGradient3184" inkscape:collect="always" x1="653.00000" x2="708.00000" xlink:href="#linearGradient5407" y1="210.36218" y2="160.36218"/>
    <linearGradient gradientTransform="matrix(0.144857,0.000000,0.000000,0.144857,31.88155,221.5233)" gradientUnits="userSpaceOnUse" id="linearGradient3186" inkscape:collect="always" x1="294.24606" x2="312.09238" xlink:href="#linearGradient6214" y1="346.32654" y2="322.13895"/>
    <linearGradient gradientTransform="translate(21.43750,166.2081)" gradientUnits="userSpaceOnUse" id="linearGradient3188" inkscape:collect="always" x1="53.127300" x2="65.800056" xlink:href="#linearGradient3857" y1="122.47619" y2="113.28660"/>
    <linearGradient gradientTransform="translate(178.4375,157.2110)" gradientUnits="userSpaceOnUse" id="linearGradient3190" inkscape:collect="always" x1="-21.763636" x2="-101.90910" xlink:href="#linearGradient2580" y1="46.290909" y2="98.109093"/>
    <linearGradient gradientTransform="matrix(0.186825,0.000000,0.000000,0.144857,-40.31813,3.047692)" gradientUnits="userSpaceOnUse" id="linearGradient30477" inkscape:collect="always" x1="688.30371" x2="361.49808" xlink:href="#linearGradient2580" y1="-31.929600" y2="346.66711"/>
    <linearGradient gradientTransform="translate(-7.306710,-26.58747)" gradientUnits="userSpaceOnUse" id="linearGradient30475" inkscape:collect="always" x1="36.313263" x2="43.598351" xlink:href="#linearGradient5407" y1="116.76148" y2="110.92786"/>
    <linearGradient gradientTransform="translate(-10.62666,-29.70621)" gradientUnits="userSpaceOnUse" id="linearGradient30473" inkscape:collect="always" x1="58.247921" x2="61.035088" xlink:href="#linearGradient5407" y1="104.91566" y2="103.14790"/>
    <linearGradient gradientTransform="translate(-10.62666,-29.70621)" gradientUnits="userSpaceOnUse" id="linearGradient30471" inkscape:collect="always" x1="32.968857" x2="60.722794" xlink:href="#linearGradient5407" y1="63.941719" y2="56.605484"/>
    <linearGradient gradientTransform="translate(-10.62666,-29.70621)" gradientUnits="userSpaceOnUse" id="linearGradient30469" inkscape:collect="always" x1="32.463516" x2="60.000000" xlink:href="#linearGradient5417" y1="58.340210" y2="51.180752"/>
    <linearGradient gradientTransform="matrix(0.144857,0.000000,0.000000,0.144857,-17.52689,16.38263)" gradientUnits="userSpaceOnUse" id="linearGradient30467" inkscape:collect="always" x1="294.24606" x2="312.09238" xlink:href="#linearGradient6214" y1="346.32654" y2="322.13895"/>
    <linearGradient gradientTransform="matrix(0.144857,0.000000,0.000000,0.144857,-17.92459,13.68970)" gradientUnits="userSpaceOnUse" id="linearGradient30465" inkscape:collect="always" x1="298.98572" x2="449.32318" xlink:href="#linearGradient6214" y1="540.53918" y2="415.53949"/>
    <linearGradient gradientTransform="translate(-10.62666,-29.70621)" gradientUnits="userSpaceOnUse" id="linearGradient30463" inkscape:collect="always" x1="25.750000" x2="32.217068" xlink:href="#linearGradient5407" y1="103.13147" y2="101.98242"/>
    <linearGradient gradientTransform="matrix(0.186825,0.000000,0.000000,0.144857,-40.31979,3.049280)" gradientUnits="userSpaceOnUse" id="linearGradient30461" inkscape:collect="always" x1="356.44232" x2="484.79608" xlink:href="#linearGradient3857" y1="437.49887" y2="256.17966"/>
    <linearGradient gradientTransform="translate(0.000000,-1.000000)" gradientUnits="userSpaceOnUse" id="linearGradient4459" inkscape:collect="always" x1="2.0000000" x2="109.00000" xlink:href="#linearGradient2060" y1="63.099518" y2="128.69501"/>
    <linearGradient gradientTransform="translate(159.1875,-14.48900)" gradientUnits="userSpaceOnUse" id="linearGradient4462" inkscape:collect="always" x1="-21.763636" x2="-101.90910" xlink:href="#linearGradient2580" y1="46.290909" y2="98.109093"/>
    <linearGradient gradientTransform="translate(2.187500,-5.488700)" gradientUnits="userSpaceOnUse" id="linearGradient4466" inkscape:collect="always" x1="53.127300" x2="65.800056" xlink:href="#linearGradient3857" y1="122.47619" y2="113.28660"/>
    <linearGradient gradientTransform="matrix(0.144857,0.000000,0.000000,0.144857,12.63155,49.82650)" gradientUnits="userSpaceOnUse" id="linearGradient4472" inkscape:collect="always" x1="294.24606" x2="312.09238" xlink:href="#linearGradient6214" y1="346.32654" y2="322.13895"/>
    <linearGradient gradientTransform="matrix(0.144857,0.000000,0.000000,0.144857,15.23385,50.47700)" gradientUnits="userSpaceOnUse" id="linearGradient4487" inkscape:collect="always" x1="298.98572" x2="449.32318" xlink:href="#linearGradient6214" y1="540.53918" y2="415.53949"/>
    <linearGradient gradientTransform="matrix(0.186825,0.000000,0.000000,0.144857,-10.16135,37.83660)" gradientUnits="userSpaceOnUse" id="linearGradient4490" inkscape:collect="always" x1="356.44232" x2="484.79608" xlink:href="#linearGradient3857" y1="437.49887" y2="256.17966"/>
  </defs>
  <g id="g5630">
    <path d="M 21.000000,5.0000000 L 124.00000,5.0000000 C 132.86400,5.0000000 140.00000,12.136000 140.00000,21.000000 L 140.00000,174.00000 C 140.00000,182.86400 132.86400,190.00000 124.00000,190.00000 L 21.000000,190.00000 C 12.136000,190.00000 5.0000000,182.86400 5.0000000,174.00000 L 5.0000000,21.000000 C 5.0000000,12.136000 12.136000,5.0000000 21.000000,5.0000000 z " id="rect2070" style="fill:#000000;fill-opacity:0.49803922;stroke:none;stroke-width:0.20000000;stroke-miterlimit:4.0000000;stroke-dashoffset:0.0000000;stroke-opacity:1.0000000"/>
    <path d="M 17.000000,1.0000000 L 120.00000,1.0000000 C 128.86400,1.0000000 136.00000,8.1360000 136.00000,17.000000 L 136.00000,170.00000 C 136.00000,178.86400 128.86400,186.00000 120.00000,186.00000 L 17.000000,186.00000 C 8.1360000,186.00000 1.0000000,178.86400 1.0000000,170.00000 L 1.0000000,17.000000 C 1.0000000,8.1360000 8.1360000,1.0000000 17.000000,1.0000000 z " id="rect1300" style="fill:#ffffff;fill-opacity:1.0000000;stroke:none;stroke-width:0.20000000;stroke-miterlimit:4.0000000;stroke-dashoffset:0.0000000;stroke-opacity:1.0000000"/>
    <path d="M 19.000000,3.0000000 L 122.00000,3.0000000 C 130.86400,3.0000000 138.00000,10.136000 138.00000,19.000000 L 138.00000,172.00000 C 138.00000,180.86400 130.86400,188.00000 122.00000,188.00000 L 19.000000,188.00000 C 10.136000,188.00000 3.0000000,180.86400 3.0000000,172.00000 L 3.0000000,19.000000 C 3.0000000,10.136000 10.136000,3.0000000 19.000000,3.0000000 z " id="path5624" style="fill:#c7891f;fill-opacity:1.0000000;stroke:none;stroke-width:0.20000000;stroke-miterlimit:4.0000000;stroke-dashoffset:0.0000000;stroke-opacity:1.0000000"/>
    <path d="M 18.000000,1.9999995 L 121.00000,1.9999995 C 129.86400,1.9999995 137.00000,9.1359995 137.00000,18.000000 L 137.00000,171.00000 C 137.00000,179.86400 129.86400,187.00000 121.00000,187.00000 L 18.000000,187.00000 C 9.1360000,187.00000 2.0000000,179.86400 2.0000000,171.00000 L 2.0000000,18.000000 C 2.0000000,9.1359995 9.1360000,1.9999995 18.000000,1.9999995 z " id="rect1306" style="fill:url(#linearGradient4853);fill-opacity:1.0000000;stroke:none;stroke-width:0.20000000;stroke-miterlimit:4.0000000;stroke-dashoffset:0.0000000;stroke-opacity:1.0000000"/>
    <path d="M 53.000000,31.000000 C 43.599297,31.000000 36.000000,38.599297 36.000000,48.000000 L 36.000000,141.00000 C 36.000000,150.40070 43.599297,158.00000 53.000000,158.00000 L 86.000000,158.00000 C 95.400703,158.00000 103.00000,150.40070 103.00000,141.00000 L 103.00000,48.000000 C 103.00000,38.599297 95.400703,31.000000 86.000000,31.000000 L 53.000000,31.000000 z M 53.000000,33.000000 L 86.000000,33.000000 C 94.327297,33.000000 101.00000,39.672703 101.00000,48.000000 L 101.00000,141.00000 C 101.00000,149.32730 94.327297,156.00000 86.000000,156.00000 L 53.000000,156.00000 C 44.672703,156.00000 38.000000,149.32730 38.000000,141.00000 L 38.000000,48.000000 C 38.000000,39.672703 44.672703,33.000000 53.000000,33.000000 z " id="rect2941" style="fill:#4f00a4;fill-opacity:1.0000000;stroke:none;stroke-width:2.0000000;stroke-miterlimit:4.0000000;stroke-dashoffset:0.0000000;stroke-opacity:1.0000000"/>
  </g>
  <path d="M 22.038657,42.782560 L 21.540255,42.782560 C 17.453352,42.782559 14.274661,41.416186 12.004173,38.683439 C 9.7336738,35.950698 8.5984273,32.146288 8.5984290,27.270199 C 8.5984273,22.407535 9.7281362,18.596429 11.987559,15.836866 C 14.258048,13.077356 17.381361,11.697588 21.357507,11.697557 C 25.377929,11.697588 28.506779,13.063960 30.744070,15.796678 C 32.992388,18.529450 34.116560,22.353953 34.116587,27.270199 C 34.116560,30.645958 33.518479,33.552847 32.322341,35.990879 C 31.137229,38.428922 29.426052,40.264147 27.188806,41.496561 L 32.189434,48.248055 L 26.092323,48.248055 L 22.038657,42.782560 M 21.357507,17.303708 C 19.408191,17.303733 17.896376,18.174461 16.822054,19.915893 C 15.747713,21.657371 15.210547,24.108804 15.210556,27.270199 C 15.210547,30.485208 15.736637,32.950037 16.788827,34.664692 C 17.840998,36.365967 19.363889,37.216601 21.357507,37.216596 C 23.317870,37.216601 24.835225,36.345874 25.909575,34.604411 C 26.983887,32.862964 27.521053,30.418229 27.521074,27.270199 C 27.521053,24.108804 26.983887,21.657371 25.909575,19.915893 C 24.835225,18.174461 23.317870,17.303733 21.357507,17.303708" id="text1481" style="font-size:37.418766;font-style:normal;font-variant:normal;font-weight:bold;font-stretch:normal;fill:#000000;fill-opacity:1.0000000;stroke:none;stroke-width:1.0000000px;stroke-linecap:butt;stroke-linejoin:miter;stroke-opacity:1.0000000;font-family:Bitstream Vera Sans;text-anchor:start;writing-mode:lr-tb"/>
  <path d="M 116.65130,146.08750 L 117.14970,146.08750 C 121.23661,146.08750 124.41529,147.45387 126.68578,150.18662 C 128.95628,152.91935 130.09153,156.72376 130.09152,161.59985 C 130.09153,166.46251 128.96182,170.27363 126.70239,173.03319 C 124.43190,175.79269 121.30859,177.17246 117.33245,177.17249 C 113.31202,177.17246 110.18317,175.80609 107.94589,173.07337 C 105.69757,170.34060 104.57339,166.51609 104.57337,161.59985 C 104.57339,158.22410 105.17148,155.31720 106.36762,152.87917 C 107.55272,150.44112 109.26390,148.60591 111.50115,147.37349 L 106.50052,140.62200 L 112.59764,140.62200 L 116.65130,146.08750 M 117.33245,171.56634 C 119.28176,171.56632 120.79358,170.69559 121.86790,168.95416 C 122.94224,167.21267 123.47940,164.76125 123.47940,161.59985 C 123.47940,158.38485 122.95332,155.92002 121.90113,154.20536 C 120.84896,152.50408 119.32607,151.65345 117.33245,151.65345 C 115.37208,151.65345 113.85473,152.52417 112.78038,154.26565 C 111.70607,156.00708 111.16890,158.45182 111.16888,161.59985 C 111.16890,164.76125 111.70607,167.21267 112.78038,168.95416 C 113.85473,170.69559 115.37208,171.56632 117.33245,171.56634" id="text4064" style="font-size:37.418766;font-style:normal;font-variant:normal;font-weight:bold;font-stretch:normal;fill:#000000;fill-opacity:1.0000000;stroke:none;stroke-width:1.0000000px;stroke-linecap:butt;stroke-linejoin:miter;stroke-opacity:1.0000000;font-family:Bitstream Vera Sans;text-anchor:start;writing-mode:lr-tb"/>
  <path d="M 20.644513,48.665000 C 15.720190,56.489664 0.60984991,69.814129 10.182209,73.927933 C 15.992739,75.821674 18.757891,71.945091 19.929042,69.378573 L 20.163623,69.378573 L 16.304766,82.325000 L 25.242300,82.286882 C 25.242300,82.286882 21.392200,69.842020 21.383444,69.365861 L 21.477274,69.365861 C 22.423222,71.463047 26.012704,75.804527 29.961255,74.151134 C 41.507111,69.516254 24.505558,56.327259 20.644513,48.665000 z " id="path1561" sodipodi:nodetypes="cccccccccc" style="fill:#000000;fill-opacity:1.0000000;fill-rule:evenodd;stroke:none;stroke-width:0.48046079;stroke-linecap:butt;stroke-linejoin:round;stroke-miterlimit:4.0000000;stroke-opacity:1.0000000"/>
  <path d="M 118.03526,140.00000 C 122.95958,132.17534 138.06992,118.85087 128.49756,114.73707 C 122.68703,112.84333 119.92188,116.71991 118.75073,119.28643 L 118.51615,119.28643 L 122.37500,106.34000 L 113.43747,106.37812 C 113.43747,106.37812 117.28757,118.82298 117.29632,119.29914 L 117.20249,119.29914 C 116.25655,117.20195 112.66706,112.86047 108.71851,114.51387 C 97.172659,119.14875 114.17421,132.33774 118.03526,140.00000 z " id="path5553" sodipodi:nodetypes="cccccccccc" style="fill:#000000;fill-opacity:1.0000000;fill-rule:evenodd;stroke:none;stroke-width:0.48046079;stroke-linecap:butt;stroke-linejoin:round;stroke-miterlimit:4.0000000;stroke-opacity:1.0000000"/>
  <g id="g4493">
    <path d="M 55.837650,46.056990 C 56.086420,54.446240 47.063280,34.214800 50.887770,47.074810 C 50.710050,52.020220 56.632810,59.721230 52.531250,62.730010 C 47.041930,65.931390 43.116400,71.412310 41.250000,77.448760 C 47.973680,76.494370 44.033140,82.255950 44.738680,86.351610 C 44.944460,94.101030 50.540490,102.48444 57.513720,106.24906 C 49.047580,107.88139 45.973770,115.13373 46.844510,122.14236 C 41.150680,125.96662 46.835580,131.12611 45.993900,134.66751 C 47.614080,138.65691 54.933840,138.43088 59.062500,139.60501 C 69.583923,140.47668 80.502936,140.14977 90.406250,136.10501 C 89.582120,126.68060 94.643470,113.83914 82.117380,107.46096 C 88.341350,107.34507 96.215540,105.89045 102.25000,104.57376 C 95.385550,101.86560 83.324530,98.995790 85.490670,89.266220 C 87.025060,77.801170 83.217980,62.443490 70.062500,60.292510 C 71.090785,53.970340 72.611285,47.702660 72.562500,41.261260 C 66.884899,55.772650 68.015863,32.440880 65.343655,42.479140 C 63.289790,50.282040 61.821312,32.102640 60.162281,45.456670 C 58.188910,43.272860 56.460660,31.418420 56.310440,43.181190 L 55.837650,46.056990 z " id="path1751" sodipodi:nodetypes="ccccccccccccccccccc" style="fill:#000000;fill-opacity:1.0000000;stroke:none;stroke-width:2.0000000;stroke-miterlimit:4.0000000;stroke-dashoffset:0.0000000;stroke-opacity:1.0000000"/>
    <path d="M 80.410676,85.184180 C 80.410676,96.597510 72.846808,105.86051 63.527041,105.86051 C 54.207274,105.86051 46.643406,96.597510 46.643406,85.184180 C 46.643406,73.770850 54.207274,64.507850 63.527041,64.507850 C 72.846808,64.507850 80.410676,73.770850 80.410676,85.184180 z " id="path1755" style="fill:url(#linearGradient4490);fill-opacity:1.0000000;stroke:none;stroke-width:2.0000000;stroke-miterlimit:4.0000000;stroke-dashoffset:0.0000000;stroke-opacity:1.0000000"/>
    <path d="M 60.486950,107.01240 C 53.437893,107.01240 47.768200,112.68210 47.768200,119.73115 L 47.768200,122.91865 C 46.590514,124.75211 45.435387,126.47216 45.674450,127.88740 C 45.850856,128.93171 46.767312,129.77971 47.768200,130.51240 L 47.768200,134.63740 C 57.148095,139.28652 77.300473,139.53122 88.393200,134.63740 L 88.393200,119.73115 C 88.393200,112.68210 82.723510,107.01240 75.674450,107.01240 L 60.486950,107.01240 z " id="path1757" style="fill:url(#linearGradient4487);fill-opacity:1.0000000;stroke:none;stroke-width:2.0000000;stroke-miterlimit:4.0000000;stroke-dashoffset:0.0000000;stroke-opacity:1.0000000"/>
    <path d="M 43.988347,75.882830 C 43.988347,75.882830 47.884755,61.752170 64.600119,61.472460 C 81.034410,61.192760 85.420190,75.354800 83.566820,91.304710 C 81.853990,99.806120 95.467520,104.09001 95.467520,104.09001 C 90.614630,105.66732 79.015942,107.10408 71.773914,104.60578 C 78.061736,99.883890 72.820449,77.258190 69.394778,74.321910 C 65.125887,77.709820 48.361393,77.417370 43.988347,75.882830 z " id="path1759" sodipodi:nodetypes="ccccccc" style="fill:#000000;fill-opacity:1.0000000;fill-rule:evenodd;stroke:none;stroke-width:1.5371202px;stroke-linecap:butt;stroke-linejoin:miter;stroke-opacity:1.0000000"/>
    <g id="g1761" transform="matrix(0.144857,0.000000,0.000000,0.144857,12.63155,49.82650)">
      <path d="M 353.00000,245.86218 C 353.00000,257.73018 343.59200,267.36218 332.00000,267.36218 C 320.40800,267.36218 311.00000,257.73018 311.00000,245.86218 C 311.00000,233.99418 320.40800,224.36218 332.00000,224.36218 C 343.59200,224.36218 353.00000,233.99418 353.00000,245.86218 z " id="path1763" style="fill:#ffffff;fill-opacity:1.0000000;stroke:none;stroke-width:2.0000000;stroke-miterlimit:4.0000000;stroke-dashoffset:0.0000000;stroke-opacity:1.0000000" transform="translate(-4.000000,-6.000000)"/>
      <path d="M 353.00000,245.86218 C 353.00000,257.73018 343.59200,267.36218 332.00000,267.36218 C 320.40800,267.36218 311.00000,257.73018 311.00000,245.86218 C 311.00000,233.99418 320.40800,224.36218 332.00000,224.36218 C 343.59200,224.36218 353.00000,233.99418 353.00000,245.86218 z " id="path1765" style="stroke-opacity:1.0000000;stroke-dashoffset:0.0000000;stroke-miterlimit:4.0000000;stroke-width:2.0000000;stroke:none;fill-opacity:1.0000000;fill:#1828ce" transform="matrix(0.571429,0.000000,0.000000,0.837210,129.2857,34.52408)"/>
      <path d="M 353.00000,245.86218 C 353.00000,257.73018 343.59200,267.36218 332.00000,267.36218 C 320.40800,267.36218 311.00000,257.73018 311.00000,245.86218 C 311.00000,233.99418 320.40800,224.36218 332.00000,224.36218 C 343.59200,224.36218 353.00000,233.99418 353.00000,245.86218 z " id="path1767" style="fill:#000000;fill-opacity:1.0000000;stroke:none;stroke-width:2.0000000;stroke-miterlimit:4.0000000;stroke-dashoffset:0.0000000;stroke-opacity:1.0000000" transform="matrix(0.357143,0.000000,0.000000,0.674419,195.9286,76.04816)"/>
    </g>
    <g id="g1769" transform="matrix(0.119803,0.000000,0.000000,9.705316e-2,-17.65310,42.17850)">
      <path d="M 618.00000,99.362183 L 628.00000,14.362183 L 666.00000,129.36218 C 666.00000,129.36218 700.00000,6.3621826 700.00000,10.362183 C 700.00000,14.362183 723.00000,101.36218 723.00000,101.36218 L 705.00000,171.36218 L 628.00000,171.36218 L 618.00000,99.362183 z " id="path1771" sodipodi:nodetypes="cccccccc" style="stroke-opacity:1.0000000;stroke-linejoin:miter;stroke-linecap:butt;stroke-width:1.0000000px;stroke:none;fill-rule:evenodd;fill-opacity:1.0000000;fill:url(#linearGradient34417)"/>
      <path d="M 589.00000,51.362183 L 625.00000,230.36218 C 652.00000,241.02885 685.00000,239.69551 709.00000,231.36218 L 734.00000,53.362183 L 690.00000,142.36218 L 667.00000,23.362183 L 644.00000,141.36218 L 589.00000,51.362183 z " id="path1773" sodipodi:nodetypes="cccccccc" style="stroke-opacity:1.0000000;stroke-linejoin:miter;stroke-linecap:butt;stroke-width:1.0000000px;stroke:none;fill-rule:evenodd;fill-opacity:1.0000000;fill:url(#linearGradient34419)"/>
    </g>
    <g id="g1775" transform="matrix(0.144857,0.000000,0.000000,0.144857,2.543050,49.32210)">
      <path d="M 353.00000,245.86218 C 353.00000,257.73018 343.59200,267.36218 332.00000,267.36218 C 320.40800,267.36218 311.00000,257.73018 311.00000,245.86218 C 311.00000,233.99418 320.40800,224.36218 332.00000,224.36218 C 343.59200,224.36218 353.00000,233.99418 353.00000,245.86218 z " id="path1777" style="fill:#ffffff;fill-opacity:1.0000000;stroke:none;stroke-width:2.0000000;stroke-miterlimit:4.0000000;stroke-dashoffset:0.0000000;stroke-opacity:1.0000000" transform="translate(-4.000000,-6.000000)"/>
      <path d="M 353.00000,245.86218 C 353.00000,257.73018 343.59200,267.36218 332.00000,267.36218 C 320.40800,267.36218 311.00000,257.73018 311.00000,245.86218 C 311.00000,233.99418 320.40800,224.36218 332.00000,224.36218 C 343.59200,224.36218 353.00000,233.99418 353.00000,245.86218 z " id="path1779" style="stroke-opacity:1.0000000;stroke-dashoffset:0.0000000;stroke-miterlimit:4.0000000;stroke-width:2.0000000;stroke:none;fill-opacity:1.0000000;fill:#1828ce" transform="matrix(0.571429,0.000000,0.000000,0.837210,129.2857,34.52408)"/>
      <path d="M 353.00000,245.86218 C 353.00000,257.73018 343.59200,267.36218 332.00000,267.36218 C 320.40800,267.36218 311.00000,257.73018 311.00000,245.86218 C 311.00000,233.99418 320.40800,224.36218 332.00000,224.36218 C 343.59200,224.36218 353.00000,233.99418 353.00000,245.86218 z " id="path1781" style="fill:#000000;fill-opacity:1.0000000;stroke:none;stroke-width:2.0000000;stroke-miterlimit:4.0000000;stroke-dashoffset:0.0000000;stroke-opacity:1.0000000" transform="matrix(0.357143,0.000000,0.000000,0.674419,195.9286,76.04816)"/>
    </g>
    <path d="M 51.976503,97.222860 C 55.507462,101.63656 58.912315,100.12329 63.704327,97.222860 C 59.416739,96.970650 56.516310,95.709590 51.976503,97.222860 z " id="path1783" sodipodi:nodetypes="ccc" style="fill:url(#linearGradient4472);fill-opacity:1.0000000;fill-rule:evenodd;stroke:none;stroke-width:1.0000000px;stroke-linecap:butt;stroke-linejoin:miter;stroke-opacity:1.0000000"/>
    <path d="M 74.599281,122.87767 L 75.862871,123.00093 L 77.234227,137.51369 L 73.769041,137.76409 L 74.599281,122.87767 z " id="path1785" sodipodi:nodetypes="ccccc" style="stroke-opacity:1.0000000;stroke-dashoffset:0.0000000;stroke-miterlimit:4.0000000;stroke-width:2.0000000;stroke:none;fill-opacity:1.0000000;fill:#700000"/>
    <path d="M 57.968750,128.32376 L 57.156250,128.88626 C 59.199765,131.84728 60.897660,134.56024 63.043446,134.94342 C 65.189232,135.32660 67.716366,133.39307 69.750000,132.48001 L 69.343750,131.57376 C 67.387588,132.45204 65.500259,132.99680 63.656250,132.66751 C 61.812241,132.33822 59.915029,131.14388 57.968750,128.32376 z " id="path1787" sodipodi:nodetypes="ccccccc" style="stroke-opacity:1.0000000;stroke-linejoin:miter;stroke-linecap:butt;stroke-width:1.0000000px;stroke:none;fill-rule:evenodd;fill-opacity:1.0000000;fill:#700000"/>
    <path d="M 53.638100,86.776220 C 52.846200,88.063050 51.903650,89.266700 52.067910,90.239140 C 52.232180,91.211580 53.509840,91.913550 54.299800,92.474160 L 54.630650,91.996270 C 53.935960,91.503260 53.479070,90.865870 53.344010,90.066320 C 53.208960,89.266760 53.393740,88.273840 54.134370,87.070300 L 53.638100,86.776220 z " id="path1789" sodipodi:nodetypes="ccccccc" style="fill:#000000;fill-opacity:1.0000000;fill-rule:evenodd;stroke:none;stroke-width:1.0000000px;stroke-linecap:butt;stroke-linejoin:miter;stroke-opacity:1.0000000"/>
    <path d="M 58.473719,107.54847 C 58.473719,107.54847 52.155879,119.32263 53.591751,127.93786 C 59.048069,118.17393 66.227433,108.69717 70.247878,106.97412 C 68.812005,106.39977 59.909592,106.68694 58.473719,107.54847 z " id="path1791" sodipodi:nodetypes="cccc" style="fill:url(#linearGradient4466);fill-opacity:1.0000000;fill-rule:evenodd;stroke:none;stroke-width:1.0000000px;stroke-linecap:butt;stroke-linejoin:miter;stroke-opacity:1.0000000"/>
    <path d="M 45.585771,127.81045 C 45.865051,129.46377 48.037291,130.65723 49.380361,131.61037 L 49.706731,131.34131 C 48.525641,130.50312 47.942814,130.38507 47.713194,129.02569 C 47.483574,127.66631 45.306491,126.15713 45.585771,127.81045 z " id="path1793" sodipodi:nodetypes="ccccc" style="stroke-opacity:1.0000000;stroke-linejoin:miter;stroke-linecap:butt;stroke-width:1.0000000px;stroke:none;fill-rule:evenodd;fill-opacity:1.0000000;fill:#700000"/>
    <path d="M 66.218750,43.198524 C 66.218750,42.956434 64.848700,46.925644 63.656250,50.386024 L 62.250000,44.448524 L 60.656250,51.104774 L 57.593750,43.573524 L 56.375000,51.761024 L 52.906250,47.167274 L 56.812500,62.948524 C 46.716880,66.544084 44.000000,75.886024 44.000000,75.886024 C 44.889340,76.198104 46.513730,76.415944 48.218750,76.604774 C 47.236160,79.226394 46.656250,82.126694 46.656250,85.198524 C 46.656250,96.611864 54.211480,105.85479 63.531250,105.85479 C 67.395220,105.85479 70.903600,104.18863 73.750000,101.51104 C 73.283070,102.81518 72.683690,103.92710 71.781250,104.60479 C 79.023280,107.10309 90.615870,105.68209 95.468750,104.10479 C 95.468750,104.10479 81.849670,99.793694 83.562500,91.292274 C 85.284550,76.472524 81.491690,63.374944 67.781250,61.792274 L 70.281250,47.354774 L 68.437500,50.354774 C 67.753590,48.247864 66.218750,43.513594 66.218750,43.198524 z M 60.500000,107.01104 C 53.450950,107.01104 47.781250,112.68074 47.781250,119.72979 L 47.781250,122.91729 C 46.603560,124.75075 45.448440,126.47080 45.687500,127.88604 C 45.863910,128.93035 46.780360,129.77835 47.781250,130.51104 L 47.781250,134.66729 C 53.793390,137.64720 64.141900,138.59339 73.781250,137.76104 C 74.929860,137.66186 76.101570,137.66742 77.218750,137.51104 C 81.353370,136.93228 85.270740,136.05059 88.406250,134.66729 L 88.406250,119.72979 C 88.406250,112.68074 82.705310,107.01104 75.656250,107.01104 L 60.500000,107.01104 z " id="path1795" style="fill:url(#linearGradient4462);fill-opacity:1.0000000;stroke:none;stroke-width:2.0000000;stroke-miterlimit:4.0000000;stroke-dashoffset:0.0000000;stroke-opacity:1.0000000"/>
  </g>
</svg>
