<?xml version="1.0" encoding="UTF-8" standalone="no"?>
<!-- Created with Inkscape (http://www.inkscape.org/) --><svg height="190.00000" id="svg2" inkscape:version="0.41" sodipodi:docbase="/home/nicu/Desktop/cards" sodipodi:docname="back2.svg" sodipodi:version="0.32" version="1.0" width="140.00000" x="0.0000000" xmlns="http://www.w3.org/2000/svg" xmlns:cc="http://web.resource.org/cc/" xmlns:dc="http://purl.org/dc/elements/1.1/" xmlns:inkscape="http://www.inkscape.org/namespaces/inkscape" xmlns:rdf="http://www.w3.org/1999/02/22-rdf-syntax-ns#" xmlns:sodipodi="http://inkscape.sourceforge.net/DTD/sodipodi-0.dtd" xmlns:svg="http://www.w3.org/2000/svg" xmlns:xlink="http://www.w3.org/1999/xlink" y="0.0000000">
  <metadata>
    <rdf:RDF xmlns:cc="http://web.resource.org/cc/" xmlns:dc="http://purl.org/dc/elements/1.1/" xmlns:rdf="http://www.w3.org/1999/02/22-rdf-syntax-ns#">
      <cc:Work rdf:about="">
        <dc:title>card</dc:title>
        <dc:description></dc:description>
        <dc:subject>
          <rdf:Bag>
            <rdf:li>card</rdf:li>
            <rdf:li>back</rdf:li>
          </rdf:Bag>
        </dc:subject>
        <dc:publisher>
          <cc:Agent rdf:about="http://www.openclipart.org/">
            <dc:title>Open Clip Art Library</dc:title>
          </cc:Agent>
        </dc:publisher>
        <dc:creator>
          <cc:Agent>
            <dc:title>Nicu Buculei</dc:title>
          </cc:Agent>
        </dc:creator>
        <dc:rights>
          <cc:Agent>
            <dc:title>Nicu Buculei</dc:title>
          </cc:Agent>
        </dc:rights>
        <dc:date></dc:date>
        <dc:format>image/svg+xml</dc:format>
        <dc:type rdf:resource="http://purl.org/dc/dcmitype/StillImage"/>
        <cc:license rdf:resource="http://web.resource.org/cc/PublicDomain"/>
        <dc:language>en</dc:language>
      </cc:Work>
      <cc:License rdf:about="http://web.resource.org/cc/PublicDomain">
        <cc:permits rdf:resource="http://web.resource.org/cc/Reproduction"/>
        <cc:permits rdf:resource="http://web.resource.org/cc/Distribution"/>
        <cc:permits rdf:resource="http://web.resource.org/cc/DerivativeWorks"/>
      </cc:License>
    </rdf:RDF>
  </metadata>
  <sodipodi:namedview bordercolor="#666666" borderopacity="1.0" id="base" inkscape:current-layer="svg2" inkscape:cx="70.000003" inkscape:cy="95.000001" inkscape:pageopacity="0.0" inkscape:pageshadow="2" inkscape:window-height="791" inkscape:window-width="1152" inkscape:window-x="0" inkscape:window-y="26" inkscape:zoom="1.9105263" pagecolor="#ffffff"/>
  <defs id="defs3">
    <linearGradient id="linearGradient8303">
      <stop id="stop8314" offset="0.0000000" style="stop-color:#000086;stop-opacity:1.0000000;"/>
      <stop id="stop8316" offset="1.0000000" style="stop-color:#005aff;stop-opacity:1.0000000;"/>
    </linearGradient>
    <linearGradient id="linearGradient2060">
      <stop id="stop2062" offset="0.0000000" style="stop-color:#ebf0d0;stop-opacity:1.0000000;"/>
      <stop id="stop2064" offset="1.0000000" style="stop-color:#ffffeb;stop-opacity:1.0000000;"/>
    </linearGradient>
    <linearGradient gradientTransform="translate(0.000000,-1.000000)" gradientUnits="userSpaceOnUse" id="linearGradient4853" x1="2.0000000" x2="109.00000" xlink:href="#linearGradient2060" y1="63.099518" y2="128.69501"/>
    <linearGradient gradientTransform="scale(0.854242,1.170628)" gradientUnits="userSpaceOnUse" id="linearGradient8318" x1="138.23376" x2="36.519855" xlink:href="#linearGradient8303" y1="146.61710" y2="18.728254"/>
    <linearGradient gradientTransform="scale(0.855373,1.169081)" gradientUnits="userSpaceOnUse" id="linearGradient9086" x1="22.029089" x2="146.39938" xlink:href="#linearGradient8303" y1="17.152563" y2="140.45406"/>
    <pattern height="13.750009" id="pattern10642" patternTransform="translate(15.00000,-5.000000)" patternUnits="userSpaceOnUse" width="14.142157">
      <g id="g10644" style="fill:#ffffff;fill-opacity:1.0000000" transform="translate(31.25001,-2.928924)">
        <rect height="5.0000029" id="rect10646" style="stroke:none;stroke-width:1.2500000;stroke-miterlimit:4.0000000;stroke-opacity:1.0000000" transform="matrix(0.707107,0.707107,-0.707107,0.707107,0.000000,0.000000)" width="5.0000029" x="-17.526024" y="21.668146"/>
        <rect height="5.0000057" id="rect10648" style="stroke:none;stroke-width:1.2500000;stroke-miterlimit:4.0000000;stroke-opacity:1.0000000" transform="matrix(0.707107,0.707107,-0.707107,0.707107,0.000000,0.000000)" width="5.0000057" x="-12.803310" y="26.390863"/>
        <rect height="5.0000057" id="rect10650" style="stroke:none;stroke-width:1.2500000;stroke-miterlimit:4.0000000;stroke-opacity:1.0000000" transform="matrix(0.707107,0.707107,-0.707107,0.707107,0.000000,0.000000)" width="5.0000057" x="-12.526019" y="16.668142"/>
        <rect height="5.0000057" id="rect10652" style="stroke:none;stroke-width:1.2500000;stroke-miterlimit:4.0000000;stroke-opacity:1.0000000" transform="matrix(0.707107,0.707107,-0.707107,0.707107,0.000000,0.000000)" width="5.0000057" x="-7.8033042" y="21.390858"/>
      </g>
    </pattern>
  </defs>
  <g id="g5630">
    <path d="M 21.000000,5.0000000 L 124.00000,5.0000000 C 132.86400,5.0000000 140.00000,12.136000 140.00000,21.000000 L 140.00000,174.00000 C 140.00000,182.86400 132.86400,190.00000 124.00000,190.00000 L 21.000000,190.00000 C 12.136000,190.00000 5.0000000,182.86400 5.0000000,174.00000 L 5.0000000,21.000000 C 5.0000000,12.136000 12.136000,5.0000000 21.000000,5.0000000 z " id="rect2070" style="fill:#000000;fill-opacity:0.49803922;stroke:none;stroke-width:0.20000000;stroke-miterlimit:4.0000000;stroke-dashoffset:0.0000000;stroke-opacity:1.0000000"/>
    <path d="M 17.000000,1.0000000 L 120.00000,1.0000000 C 128.86400,1.0000000 136.00000,8.1360000 136.00000,17.000000 L 136.00000,170.00000 C 136.00000,178.86400 128.86400,186.00000 120.00000,186.00000 L 17.000000,186.00000 C 8.1360000,186.00000 1.0000000,178.86400 1.0000000,170.00000 L 1.0000000,17.000000 C 1.0000000,8.1360000 8.1360000,1.0000000 17.000000,1.0000000 z " id="rect1300" style="fill:#ffffff;fill-opacity:1.0000000;stroke:none;stroke-width:0.20000000;stroke-miterlimit:4.0000000;stroke-dashoffset:0.0000000;stroke-opacity:1.0000000"/>
    <path d="M 19.000000,3.0000000 L 122.00000,3.0000000 C 130.86400,3.0000000 138.00000,10.136000 138.00000,19.000000 L 138.00000,172.00000 C 138.00000,180.86400 130.86400,188.00000 122.00000,188.00000 L 19.000000,188.00000 C 10.136000,188.00000 3.0000000,180.86400 3.0000000,172.00000 L 3.0000000,19.000000 C 3.0000000,10.136000 10.136000,3.0000000 19.000000,3.0000000 z " id="path5624" style="fill:#c7891f;fill-opacity:1.0000000;stroke:none;stroke-width:0.20000000;stroke-miterlimit:4.0000000;stroke-dashoffset:0.0000000;stroke-opacity:1.0000000"/>
    <path d="M 18.000000,1.9999995 L 121.00000,1.9999995 C 129.86400,1.9999995 137.00000,9.1359995 137.00000,18.000000 L 137.00000,171.00000 C 137.00000,179.86400 129.86400,187.00000 121.00000,187.00000 L 18.000000,187.00000 C 9.1360000,187.00000 2.0000000,179.86400 2.0000000,171.00000 L 2.0000000,18.000000 C 2.0000000,9.1359995 9.1360000,1.9999995 18.000000,1.9999995 z " id="rect1306" style="fill:url(#linearGradient4853);fill-opacity:1.0000000;stroke:none;stroke-width:0.20000000;stroke-miterlimit:4.0000000;stroke-dashoffset:0.0000000;stroke-opacity:1.0000000"/>
  </g>
  <path d="M 22.166666,10.000000 L 116.58333,10.000000 C 124.70867,10.000000 131.25000,16.541333 131.25000,24.666666 L 131.25000,164.91666 C 131.25000,173.04200 124.70867,179.58333 116.58333,179.58333 L 22.166666,179.58333 C 14.041333,179.58333 7.5000000,173.04200 7.5000000,164.91666 L 7.5000000,24.666666 C 7.5000000,16.541333 14.041333,10.000000 22.166666,10.000000 z " id="path1385" style="fill:url(#linearGradient8318);fill-opacity:1.0000000;stroke:none;stroke-width:0.20000000;stroke-miterlimit:4.0000000;stroke-dashoffset:0.0000000;stroke-opacity:1.0000000"/>
  <path d="M 22.166666,10.000000 L 116.58333,10.000000 C 124.70867,10.000000 131.25000,16.541333 131.25000,24.666666 L 131.25000,164.91666 C 131.25000,173.04200 124.70867,179.58333 116.58333,179.58333 L 22.166666,179.58333 C 14.041333,179.58333 7.5000000,173.04200 7.5000000,164.91666 L 7.5000000,24.666666 C 7.5000000,16.541333 14.041333,10.000000 22.166666,10.000000 z " id="path9846" style="fill:url(#pattern10642);fill-opacity:1.0000000;stroke:none;stroke-width:0.20000000;stroke-miterlimit:4.0000000;stroke-dashoffset:0.0000000;stroke-opacity:1.0000000"/>
  <path d="M 22.156250,9.3750000 C 13.695478,9.3750000 6.8750000,16.195478 6.8750000,24.656250 L 6.8750000,164.90625 C 6.8750000,173.36703 13.695478,180.21875 22.156250,180.21875 L 116.59375,180.21875 C 125.05453,180.21875 131.87500,173.36703 131.87500,164.90625 L 131.87500,24.656250 C 131.87500,16.195478 125.05453,9.3750000 116.59375,9.3750000 L 22.156250,9.3750000 z M 22.156250,10.625000 L 116.59375,10.625000 C 124.38365,10.625000 130.62500,16.866356 130.62500,24.656250 L 130.62500,164.90625 C 130.62500,172.69615 124.38365,178.96875 116.59375,178.96875 L 22.156250,178.96875 C 14.366356,178.96875 8.1250000,172.69615 8.1250000,164.90625 L 8.1250000,24.656250 C 8.1250000,16.866356 14.366356,10.625000 22.156250,10.625000 z " id="path2154" style="fill:url(#linearGradient9086);fill-opacity:1.0000000;stroke:none;stroke-width:1.2500000;stroke-miterlimit:4.0000000;stroke-dashoffset:0.0000000;stroke-opacity:1.0000000"/>
</svg>
