/* XPM */
/* C:\Program Files\PokerStars\PokerStarsUpdate.exe */
static char *icon[] = {
"48 48 40 2",
"01 c #800000",
"08 c #C0DCC0",
"4C c #7F1F00",
"6C c #AA0000",
"6D c #AA0055",
"70 c #AA1F00",
"90 c #D40000",
"91 c #D40055",
"94 c #D41F00",
"95 c #D41F55",
"99 c #D43F55",
"9D c #D45F55",
"9E c #D45FAA",
"A1 c #D47F55",
"A2 c #D47FAA",
"A5 c #D49F55",
"A6 c #D49FAA",
"AA c #D4BFAA",
"AE c #D4DFAA",
"AF c #D4DFFF",
"B4 c #FF0055",
"B6 c #FF1F00",
"B7 c #FF1F55",
"BA c #FF3F00",
"BB c #FF3F55",
"BE c #FF5F00",
"BF c #FF5F55",
"C3 c #FF7F55",
"C4 c #FF7FAA",
"C7 c #FF9F55",
"C8 c #FF9FAA",
"CC c #FFBFAA",
"CD c #FFBFFF",
"D0 c #FFDFAA",
"D1 c #FFDFFF",
"D5 c #FFCCFF",
"F6 c #FFFBF0",
"F9 c #FF0000",
"FF c #FFFFFF",
"   c None",
"707070707070707070707070707070707070707070707070707070707070707070707070707070707070707070707070",
"70FFFFFFFFFFFFFFFFFFFFFFFFFFFFFFFFFFFFFFFFFFFFFFFFFFFFFFFFFFFFFFFFFFFFFFFFFFFFFFFFFFFFFFFFFFFF6C",
"6CFFFFFFFFFFFFFFFFFFFFFFFFFFFFFFFFFFFFFFFFFFFFFFFFFFFFFFFFFFFFFFFFFFFFFFFFFFFFFFFFFFFFFFFFFFFF70",
"70FFFFFFFFFFFFFFFFFFFFFFFFFFFFFFFFFFFFFFFFFFFFAAD1FFFFFFFFFFFFFFFFFFFFFFFFFFFFFFFFFFFFFFFFFFFF70",
"70FFFFFFFFFFFFFFFFFFFFFFFFFFFFFFFFFFFFFFFFFFA6949DFFFFFFFFFFFFFFFFFFFFFFFFFFFFFFFFFFFFFFFFFFFF6C",
"70FFFFFFFFFFFFFFFFFFFFFFFFFFFFFFFFFFFFFFFFA6BFBBF999F6FFFFFFFFFFFFFFFFFFFFFFFFFFFFFFFFFFFFFFFF70",
"6CFFFFFFFFFFFFFFFFFFFFFFFFFFFFFFFFFFFFF6A6A2C7B6F9F99DD1FFFFFFFFFFFFFFFFFFFFFFFFFFFFFFFFFFFFFF70",
"70FFFFFFFFFFFFFFFFFFFFFFFFFFFFFFFFFFF6A2C8CCBFB6B4F99099F6FFFFFFFFFFFFFFFFFFFFFFFFFFFFFFFFFFFF70",
"70FFFFFFFFFFFFFFFFFFFFFFFFFFFFFFFFFFA6C8CCC3BEB7F9F9F99099F6FFFFFFFFFFFFFFFFFFFFFFFFFFFFFFFFFF6C",
"70FFFFFFFFFFFFFFFFFFFFFFFFFFFFFFFFA2C8D0C7BFBBB6F9B4F9F99099F6FFFFFFFFFFFFFFFFFFFFFFFFFFFFFFFF70",
"6CFFFFFFFFFFFFFFFFFFFFFFFFFFFFF6A6AAD0C8C3C3BBF9F9F9F9B4F99099D1FFFFFFFFFFFFFFFFFFFFFFFFFFFFFF70",
"70FFFFFFFFFFFFFFFFFFFFFFFFFFFFA6C8D0CCC7C3BFBAB6B4F9F9F99090909DF6FFFFFFFFFFFFFFFFFFFFFFFFFFFF70",
"70FFFFFFFFFFFFFFFFFFFFFFFFFFA2CCF6CCC8C3BFBEBBF9F9F9B4F9F9B4909099F6FFFFFFFFFFFFFFFFFFFFFFFFFF6C",
"70FFFFFFFFFFFFFFFFFFFFFFFFA6CCD1CCC7C3C3BFBAB6B7F9F9F9B490F990906C99FFFFFFD1FFFFFFD1FFFFFFD1FF70",
"6CFFFFFFFFFFFFFFFFFFFFFFAAC8F6CCC7C8C3BFBFBFB6C4B7F9F9F9F9F99190906C9DFFFFFFFFFFFFFFFFFFFFFFFF70",
"70FFFFD1FFFFFFD1FFFFFFAAC8F6CCCCC8C3C3C3BEBBB6F6BFF9B4F9B490F99091906CA2FFFFFFFFFFFFFFFFFFFFFF70",
"70FFFFFFFFFFFFFFFFFFD1A6F6CCCCC7C7C3C3BFBBBABFFFC8F9F9F990F9909090906C90AAFFFFFFFFFFFFFFFFFFFF70",
"70FFFFFFFFFFFFFFFFF6A6D0D1CCC8C7C3C3BFBEBFB6CCFFF6F9F9F9B4F9B49090906C6C95F6FFFFFFFFFFFFFFFFFF6C",
"6CFFFFFFFFFFFFFFFFAACCF6CCCCC7C4C3BFBEBBBABBD1FFFFBFF9F9F990F9F99190956C6C99FFFFFFFFFFFFFFFFFF70",
"70FFFFFFFFFFFFFFD1C8F6CCCCC8C7C7C8C7C8C7C3C8F6FFF6CDBFBBBFBBBFBF9090906C6C6CA6FFFFFFFFFFFFFFFF70",
"70FFFFFFFFFFFFFFAAF6D0CCC8C7C3C4D0FFFFFFFFF6F6FFFFF6FFFFFFFFD199F9909090706C99F6FFFFFFFFFFFFFF70",
"70FFFFFFFFFFFFD5CCD1CCCCC7C3C3C3BFC8F6FFFFFFFFFFFFFFFFFFFFC895F990B490916C016CA2FFFFFFFFFFFFFF6C",
"6CFFFFFFFFFFF6AAD1D0CCC7C8C3C3C3BFBEBFD1FFFFFFFFFFFFFFFFA1F9F990F9909090906C0170F6FFFFFFFFFFFF70",
"70FFFFFFFFFFD1CCD0CCC8C8C3C3BFBFBFBABBBACCFFFFFFFFFFD1BBF9F990B490B490906D6C6C6CA6FFFFFFFFFFFF70",
"70FFFFFFFFF6AACCD1CCC7C7C3C3BFBEBFBABABBD1FFFFFFFFFFF699F990B4F990F99090906C700199FFFFFFFFFFFF70",
"70FFFFFFFFFFA6D0CCC8C7C3C3BFBFBFBABBB6BFF6FFFFFFFFFFFFC8F9F990F99091F99190906C0194D1FFFFFFFFFF6C",
"6CFFFFFFFFF6C8CCCCC7C4C3BFBFBEBFBABBB6C8FFFFCCBBC4FFFFD091F9F991F9F990F9906C6D016CAAFFFFFFFFFF70",
"70FFFFFFF6D5A5CCC8C7C3C3BFBEBBBABBBAB6F6F6C4F9F9F9BBD1FFBBF990F9F991F99091906C016CA2FFFFFFFFFF70",
"70FFFFFFFFAEC4C7C7C3BFBFBEBFBABBB6B6BBD1BBF9F9F9F9F9B6CCC8F9B4F990F990909090706C6CA2F6FFFFFFFF70",
"70FFFFFFFFCCC3C8C3C3BFBEBBBABBBAB6B7BBB6F9F9F9B4F9F9F9B4BBB690F9B490B49090916C016CA1FFFFFFFFFF6C",
"6CFFFFFFFFD19DC3BFBFBFBBBABBB6B7B6F9F9F9F9B4F9F9F9B4F9F9F9B4F9F9F9F990B4906C6C016CC8FFFFFFFFFF70",
"70FFFFFFFFF69DBEBFBEBABABBB6B6B6F9F9F9B4F990F9B4F9F9F9F9F9F9F991F990F99090706C016CAAFFFFFFFFFF70",
"70FFFFFFFFFFA2B6BBBAB7B6B6B6B4F9B4F991909090F9F9F990B4F9B4F9F9F9F9B49090906D6C0199FFFFFFFFFFFF70",
"70FFFFFFFFF6F694F9B6B6B4F9F9F9F990F9909090C8A2F999CC95F9F9F9B4F9909090916C6C0190A6FFFFFFFFFFFF6C",
"6CFFFFFFFFFFFFCC91F990F9B4F991F991906C909DFFCCF9BFFFCCF9F9F990F9F991906C70016CA2FFFFFFFFFFFFFF70",
"70FFFFFFFFFFFFFFC895909090909090906C909EFFFFA2F995FFFFA6B790F99190906C6C6C6CC4F6F6FFFFFFFFFFFF70",
"70FFFFFFFFFFFFFFFFAEBF9590906C906C99C8FFF6FFBFB69008FFFFF69DB7906C6C6C9499D5F6F6FFFFFFFFFFFFFF70",
"70FFFFFFFFFFFFFFFFFFFFD0A6A2C3A6CCFFFFFFFF08BBF990A2F6FFFFFFF6CCC8C8CCAFFFF6FFFFFFFFFFFFFFFFFF6C",
"6CFFFFFFFFFFFFFFFFFFFFFFFFFFFFFFFFFFFFFFFFA6BFF99095F6FFFFFFFFFFFFFFFFFFFFFFFFFFFFFFFFFFFFFFFF70",
"70FFFFFFFFFFFFFFFFFFFFFFFFFFFFFFFFFFFFF6D1A1BFF9906CA6FFFFFFFFFFFFFFFFFFFFFFFFFFFFFFFFFFFFFFFF70",
"70FFFFFFFFFFFFFFFFFFFFFFFFFFFFFFFFFFFFFFA2C3BBF9F96C95F6F6FFFFFFFFFFFFFFFFFFFFFFFFFFFFFFFFFFFF70",
"70FFFFFFFFFFFFFFFFFFFFFFFFFFFFFFFFFFFFA6A1C3B6F9B4906C99FFFFFFFFFFFFFFFFFFFFFFFFFFFFFFFFFFFFFF6C",
"6CFFFFFFFFFFFFFFFFFFFFFFFFFFFFFFFFFFAAC3C3BAB4F9F990906C9DFFFFFFFFFFFFFFFFFFFFFFFFFFFFFFFFFFFF70",
"70FFFFFFFFFFFFFFFFFFFFFFFFFFFFFFD19DBBBBB6F9F9F990F990909099AAFFFFFFFFFFFFFFFFFFF6FFFFFFFFFFFF70",
"70FFFFFFFFFFFFFFFFFFFFFFFFFFFFF6A2A1BF9D9EBFA2BFA2BFA29DA2BFA2CCFFFFFFFFF6FFFFFFFFFFFFFFFFFFFF70",
"70FFFFFFFFFFFFFFFFFFFFFFFFFFFFF6FFFFFFFFFFFFFFFFFFFFFFFFF6FFF6FFFFFFFFFFFFFFFFFFFFFFFFFFFFFFFF6C",
"6CFFFFFFFFFFFFFFFFFFFFFFFFFFFFFFFFFFFFFFFFFFFFFFFFFFFFFFFFFFFFFFFFFFFFFFFFFFFFFFFFFFFFFFFFFFFF70",
"704C706C7001706C7001706C70706C7070707070707070706C7070707070704C707001707001706C704C6C7070017070"};
