<?xml version="1.0" encoding="UTF-8" standalone="no"?>
<!-- Created with Inkscape (http://www.inkscape.org/) --><svg height="190.00000" id="svg2" inkscape:version="0.41+cvs" sodipodi:docbase="/home/nicu/Desktop/card_nicu_buculei_01.zip_FILES/cards/bordered" sodipodi:docname="bordered_s_9.svg" sodipodi:version="0.32" version="1.0" width="140.00000" x="0.0000000" xmlns="http://www.w3.org/2000/svg" xmlns:cc="http://web.resource.org/cc/" xmlns:dc="http://purl.org/dc/elements/1.1/" xmlns:inkscape="http://www.inkscape.org/namespaces/inkscape" xmlns:rdf="http://www.w3.org/1999/02/22-rdf-syntax-ns#" xmlns:sodipodi="http://inkscape.sourceforge.net/DTD/sodipodi-0.dtd" xmlns:svg="http://www.w3.org/2000/svg" xmlns:xlink="http://www.w3.org/1999/xlink" y="0.0000000">
  <metadata>
    <rdf:RDF xmlns:cc="http://web.resource.org/cc/" xmlns:dc="http://purl.org/dc/elements/1.1/" xmlns:rdf="http://www.w3.org/1999/02/22-rdf-syntax-ns#">
      <cc:Work rdf:about="">
        <dc:title>card</dc:title>
        <dc:description></dc:description>
        <dc:subject>
          <rdf:Bag>
            <rdf:li>card</rdf:li>
            <rdf:li>bordered</rdf:li>
          </rdf:Bag>
        </dc:subject>
        <dc:publisher>
          <cc:Agent rdf:about="http://www.openclipart.org/">
            <dc:title>Open Clip Art Library</dc:title>
          </cc:Agent>
        </dc:publisher>
        <dc:creator>
          <cc:Agent>
            <dc:title>Nicu Buculei</dc:title>
          </cc:Agent>
        </dc:creator>
        <dc:rights>
          <cc:Agent>
            <dc:title>Nicu Buculei</dc:title>
          </cc:Agent>
        </dc:rights>
        <dc:date></dc:date>
        <dc:format>image/svg+xml</dc:format>
        <dc:type rdf:resource="http://purl.org/dc/dcmitype/StillImage"/>
        <cc:license rdf:resource="http://web.resource.org/cc/PublicDomain"/>
        <dc:language>en</dc:language>
      </cc:Work>
      <cc:License rdf:about="http://web.resource.org/cc/PublicDomain">
        <cc:permits rdf:resource="http://web.resource.org/cc/Reproduction"/>
        <cc:permits rdf:resource="http://web.resource.org/cc/Distribution"/>
        <cc:permits rdf:resource="http://web.resource.org/cc/DerivativeWorks"/>
      </cc:License>
    </rdf:RDF>
  </metadata>
  <sodipodi:namedview bordercolor="#666666" borderopacity="1.0" id="base" inkscape:current-layer="svg2" inkscape:cx="69.999969" inkscape:cy="94.999969" inkscape:pageopacity="0.0" inkscape:pageshadow="2" inkscape:window-height="791" inkscape:window-width="1152" inkscape:window-x="0" inkscape:window-y="26" inkscape:zoom="1.0000000" pagecolor="#ffffff"/>
  <defs id="defs3">
    <linearGradient id="linearGradient3920">
      <stop id="stop3922" offset="0.0000000" style="stop-color:#ffffff;stop-opacity:1.0000000;"/>
      <stop id="stop3924" offset="1.0000000" style="stop-color:#ffffff;stop-opacity:0.0000000;"/>
    </linearGradient>
    <linearGradient id="linearGradient2060">
      <stop id="stop2062" offset="0.0000000" style="stop-color:#ebf0d0;stop-opacity:1.0000000;"/>
      <stop id="stop2064" offset="1.0000000" style="stop-color:#ffffeb;stop-opacity:1.0000000;"/>
    </linearGradient>
    <linearGradient id="linearGradient1575">
      <stop id="stop1576" offset="0.0000000" style="stop-color:#ffffff;stop-opacity:0.50000000;"/>
      <stop id="stop1577" offset="1.0000000" style="stop-color:#ffffff;stop-opacity:0.0000000;"/>
    </linearGradient>
    <linearGradient gradientTransform="translate(0.000000,-1.000000)" gradientUnits="userSpaceOnUse" id="linearGradient4853" x1="2.0000000" x2="109.00000" xlink:href="#linearGradient2060" y1="63.099518" y2="128.69501"/>
    <linearGradient gradientUnits="userSpaceOnUse" id="linearGradient3926" x1="233.88673" x2="159.43488" xlink:href="#linearGradient3920" y1="142.78372" y2="209.56096"/>
    <linearGradient gradientUnits="userSpaceOnUse" id="linearGradient1368" x1="233.88673" x2="159.43488" xlink:href="#linearGradient3920" y1="142.78372" y2="209.56096"/>
    <linearGradient gradientTransform="translate(0.000000,-1.000000)" gradientUnits="userSpaceOnUse" id="linearGradient1366" x1="2.0000000" x2="109.00000" xlink:href="#linearGradient2060" y1="63.099518" y2="128.69501"/>
    <linearGradient id="linearGradient1360">
      <stop id="stop1362" offset="0.0000000" style="stop-color:#ffffff;stop-opacity:0.50000000;"/>
      <stop id="stop1364" offset="1.0000000" style="stop-color:#ffffff;stop-opacity:0.0000000;"/>
    </linearGradient>
    <linearGradient id="linearGradient1354">
      <stop id="stop1356" offset="0.0000000" style="stop-color:#ebf0d0;stop-opacity:1.0000000;"/>
      <stop id="stop1358" offset="1.0000000" style="stop-color:#ffffeb;stop-opacity:1.0000000;"/>
    </linearGradient>
    <linearGradient gradientTransform="translate(0.000000,-1.000000)" gradientUnits="userSpaceOnUse" id="linearGradient1398" x1="2.0000000" x2="109.00000" xlink:href="#linearGradient2060" y1="63.099518" y2="128.69501"/>
    <linearGradient gradientTransform="translate(0.000000,-1.000000)" gradientUnits="userSpaceOnUse" id="linearGradient5579" x1="2.0000000" x2="109.00000" xlink:href="#linearGradient2060" y1="63.099518" y2="128.69501"/>
    <linearGradient id="linearGradient5573">
      <stop id="stop5575" offset="0.0000000" style="stop-color:#ebf0d0;stop-opacity:1.0000000;"/>
      <stop id="stop5577" offset="1.0000000" style="stop-color:#ffffeb;stop-opacity:1.0000000;"/>
    </linearGradient>
    <linearGradient id="linearGradient5567">
      <stop id="stop5569" offset="0.0000000" style="stop-color:#ffffff;stop-opacity:0.50000000;"/>
      <stop id="stop5571" offset="1.0000000" style="stop-color:#ffffff;stop-opacity:0.0000000;"/>
    </linearGradient>
    <linearGradient gradientTransform="translate(0.000000,-1.000000)" gradientUnits="userSpaceOnUse" id="linearGradient5565" x1="2.0000000" x2="109.00000" xlink:href="#linearGradient2060" y1="63.099518" y2="128.69501"/>
    <linearGradient gradientUnits="userSpaceOnUse" id="linearGradient5563" x1="233.88673" x2="159.43488" xlink:href="#linearGradient3920" y1="142.78372" y2="209.56096"/>
    <linearGradient gradientUnits="userSpaceOnUse" id="linearGradient5561" x1="233.88673" x2="159.43488" xlink:href="#linearGradient3920" y1="142.78372" y2="209.56096"/>
    <linearGradient gradientTransform="translate(0.000000,-1.000000)" gradientUnits="userSpaceOnUse" id="linearGradient5559" x1="2.0000000" x2="109.00000" xlink:href="#linearGradient2060" y1="63.099518" y2="128.69501"/>
    <linearGradient id="linearGradient5553">
      <stop id="stop5555" offset="0.0000000" style="stop-color:#ffffff;stop-opacity:0.50000000;"/>
      <stop id="stop5557" offset="1.0000000" style="stop-color:#ffffff;stop-opacity:0.0000000;"/>
    </linearGradient>
    <linearGradient id="linearGradient5547">
      <stop id="stop5549" offset="0.0000000" style="stop-color:#ebf0d0;stop-opacity:1.0000000;"/>
      <stop id="stop5551" offset="1.0000000" style="stop-color:#ffffeb;stop-opacity:1.0000000;"/>
    </linearGradient>
    <linearGradient gradientTransform="translate(0.000000,-1.000000)" gradientUnits="userSpaceOnUse" id="linearGradient5619" x1="2.0000000" x2="109.00000" xlink:href="#linearGradient2060" y1="63.099518" y2="128.69501"/>
    <linearGradient gradientTransform="translate(0.000000,-1.000000)" gradientUnits="userSpaceOnUse" id="linearGradient5831" x1="2.0000000" x2="109.00000" xlink:href="#linearGradient2060" y1="63.099518" y2="128.69501"/>
    <linearGradient id="linearGradient5825">
      <stop id="stop5827" offset="0.0000000" style="stop-color:#ebf0d0;stop-opacity:1.0000000;"/>
      <stop id="stop5829" offset="1.0000000" style="stop-color:#ffffeb;stop-opacity:1.0000000;"/>
    </linearGradient>
    <linearGradient id="linearGradient5819">
      <stop id="stop5821" offset="0.0000000" style="stop-color:#ffffff;stop-opacity:0.50000000;"/>
      <stop id="stop5823" offset="1.0000000" style="stop-color:#ffffff;stop-opacity:0.0000000;"/>
    </linearGradient>
    <linearGradient gradientTransform="translate(0.000000,-1.000000)" gradientUnits="userSpaceOnUse" id="linearGradient5817" x1="2.0000000" x2="109.00000" xlink:href="#linearGradient2060" y1="63.099518" y2="128.69501"/>
    <linearGradient gradientUnits="userSpaceOnUse" id="linearGradient5815" x1="233.88673" x2="159.43488" xlink:href="#linearGradient3920" y1="142.78372" y2="209.56096"/>
    <linearGradient gradientUnits="userSpaceOnUse" id="linearGradient5813" x1="233.88673" x2="159.43488" xlink:href="#linearGradient3920" y1="142.78372" y2="209.56096"/>
    <linearGradient gradientTransform="translate(0.000000,-1.000000)" gradientUnits="userSpaceOnUse" id="linearGradient5811" x1="2.0000000" x2="109.00000" xlink:href="#linearGradient2060" y1="63.099518" y2="128.69501"/>
    <linearGradient id="linearGradient5805">
      <stop id="stop5807" offset="0.0000000" style="stop-color:#ffffff;stop-opacity:0.50000000;"/>
      <stop id="stop5809" offset="1.0000000" style="stop-color:#ffffff;stop-opacity:0.0000000;"/>
    </linearGradient>
    <linearGradient id="linearGradient5799">
      <stop id="stop5801" offset="0.0000000" style="stop-color:#ebf0d0;stop-opacity:1.0000000;"/>
      <stop id="stop5803" offset="1.0000000" style="stop-color:#ffffeb;stop-opacity:1.0000000;"/>
    </linearGradient>
    <linearGradient gradientTransform="translate(0.000000,-1.000000)" gradientUnits="userSpaceOnUse" id="linearGradient5880" x1="2.0000000" x2="109.00000" xlink:href="#linearGradient2060" y1="63.099518" y2="128.69501"/>
  </defs>
  <g id="g5630">
    <path d="M 21.000000,5.0000000 L 124.00000,5.0000000 C 132.86400,5.0000000 140.00000,12.136000 140.00000,21.000000 L 140.00000,174.00000 C 140.00000,182.86400 132.86400,190.00000 124.00000,190.00000 L 21.000000,190.00000 C 12.136000,190.00000 5.0000000,182.86400 5.0000000,174.00000 L 5.0000000,21.000000 C 5.0000000,12.136000 12.136000,5.0000000 21.000000,5.0000000 z " id="rect2070" style="fill:#000000;fill-opacity:0.49803922;stroke:none;stroke-width:0.20000000;stroke-miterlimit:4.0000000;stroke-dashoffset:0.0000000;stroke-opacity:1.0000000"/>
    <path d="M 17.000000,1.0000000 L 120.00000,1.0000000 C 128.86400,1.0000000 136.00000,8.1360000 136.00000,17.000000 L 136.00000,170.00000 C 136.00000,178.86400 128.86400,186.00000 120.00000,186.00000 L 17.000000,186.00000 C 8.1360000,186.00000 1.0000000,178.86400 1.0000000,170.00000 L 1.0000000,17.000000 C 1.0000000,8.1360000 8.1360000,1.0000000 17.000000,1.0000000 z " id="rect1300" style="fill:#ffffff;fill-opacity:1.0000000;stroke:none;stroke-width:0.20000000;stroke-miterlimit:4.0000000;stroke-dashoffset:0.0000000;stroke-opacity:1.0000000"/>
    <path d="M 19.000000,3.0000000 L 122.00000,3.0000000 C 130.86400,3.0000000 138.00000,10.136000 138.00000,19.000000 L 138.00000,172.00000 C 138.00000,180.86400 130.86400,188.00000 122.00000,188.00000 L 19.000000,188.00000 C 10.136000,188.00000 3.0000000,180.86400 3.0000000,172.00000 L 3.0000000,19.000000 C 3.0000000,10.136000 10.136000,3.0000000 19.000000,3.0000000 z " id="path5624" style="fill:#c7891f;fill-opacity:1.0000000;stroke:none;stroke-width:0.20000000;stroke-miterlimit:4.0000000;stroke-dashoffset:0.0000000;stroke-opacity:1.0000000"/>
    <path d="M 18.000000,1.9999995 L 121.00000,1.9999995 C 129.86400,1.9999995 137.00000,9.1359995 137.00000,18.000000 L 137.00000,171.00000 C 137.00000,179.86400 129.86400,187.00000 121.00000,187.00000 L 18.000000,187.00000 C 9.1360000,187.00000 2.0000000,179.86400 2.0000000,171.00000 L 2.0000000,18.000000 C 2.0000000,9.1359995 9.1360000,1.9999995 18.000000,1.9999995 z " id="rect1306" style="fill:url(#linearGradient4853);fill-opacity:1.0000000;stroke:none;stroke-width:0.20000000;stroke-miterlimit:4.0000000;stroke-dashoffset:0.0000000;stroke-opacity:1.0000000"/>
    <path d="M 53.000000,31.000000 C 43.599297,31.000000 36.000000,38.599297 36.000000,48.000000 L 36.000000,141.00000 C 36.000000,150.40070 43.599297,158.00000 53.000000,158.00000 L 86.000000,158.00000 C 95.400703,158.00000 103.00000,150.40070 103.00000,141.00000 L 103.00000,48.000000 C 103.00000,38.599297 95.400703,31.000000 86.000000,31.000000 L 53.000000,31.000000 z M 53.000000,33.000000 L 86.000000,33.000000 C 94.327297,33.000000 101.00000,39.672703 101.00000,48.000000 L 101.00000,141.00000 C 101.00000,149.32730 94.327297,156.00000 86.000000,156.00000 L 53.000000,156.00000 C 44.672703,156.00000 38.000000,149.32730 38.000000,141.00000 L 38.000000,48.000000 C 38.000000,39.672703 44.672703,33.000000 53.000000,33.000000 z " id="rect2941" style="fill:#4f00a4;fill-opacity:1.0000000;stroke:none;stroke-width:2.0000000;stroke-miterlimit:4.0000000;stroke-dashoffset:0.0000000;stroke-opacity:1.0000000"/>
  </g>
  <g id="g5899" style="stroke-opacity:1.0000000;stroke:none" transform="matrix(0.593136,0.000000,0.000000,0.238935,-85.41248,49.25599)">
    <path d="M 260.17615,149.59720 C 255.34000,168.83832 240.50022,201.60363 249.90118,211.71962 C 255.60767,216.37640 258.32331,206.84375 259.47349,200.53259 L 259.70387,200.53259 L 255.91411,232.36832 L 264.69161,232.27457 C 264.69161,232.27457 260.91045,201.67223 260.90185,200.50134 L 260.99400,200.50134 C 261.92301,205.65839 265.44822,216.33425 269.32607,212.26849 C 280.66519,200.87117 263.96806,168.43896 260.17615,149.59720 z " id="path5901" sodipodi:nodetypes="cccccccccc" style="fill:#000000;fill-opacity:1.0000000;fill-rule:evenodd;stroke-width:0.75889903;stroke-linecap:butt;stroke-linejoin:round;stroke-miterlimit:4.0000000"/>
  </g>
  <g id="g1720" style="stroke-opacity:1.0000000;stroke:none" transform="matrix(0.593136,0.000000,0.000000,0.238935,-105.4057,0.481054)">
    <path d="M 260.17615,149.59720 C 255.34000,168.83832 240.50022,201.60363 249.90118,211.71962 C 255.60767,216.37640 258.32331,206.84375 259.47349,200.53259 L 259.70387,200.53259 L 255.91411,232.36832 L 264.69161,232.27457 C 264.69161,232.27457 260.91045,201.67223 260.90185,200.50134 L 260.99400,200.50134 C 261.92301,205.65839 265.44822,216.33425 269.32607,212.26849 C 280.66519,200.87117 263.96806,168.43896 260.17615,149.59720 z " id="path1722" sodipodi:nodetypes="cccccccccc" style="fill:#000000;fill-opacity:1.0000000;fill-rule:evenodd;stroke-width:0.75889903;stroke-linecap:butt;stroke-linejoin:round;stroke-miterlimit:4.0000000"/>
  </g>
  <g id="g1733" style="stroke-opacity:1.0000000;stroke:none" transform="matrix(0.593136,0.000000,0.000000,0.238935,-64.26963,0.398840)">
    <path d="M 260.17615,149.59720 C 255.34000,168.83832 240.50022,201.60363 249.90118,211.71962 C 255.60767,216.37640 258.32331,206.84375 259.47349,200.53259 L 259.70387,200.53259 L 255.91411,232.36832 L 264.69161,232.27457 C 264.69161,232.27457 260.91045,201.67223 260.90185,200.50134 L 260.99400,200.50134 C 261.92301,205.65839 265.44822,216.33425 269.32607,212.26849 C 280.66519,200.87117 263.96806,168.43896 260.17615,149.59720 z " id="path1735" sodipodi:nodetypes="cccccccccc" style="fill:#000000;fill-opacity:1.0000000;fill-rule:evenodd;stroke-width:0.75889903;stroke-linecap:butt;stroke-linejoin:round;stroke-miterlimit:4.0000000"/>
  </g>
  <g id="g1737" style="stroke-opacity:1.0000000;stroke:none" transform="matrix(0.593136,0.000000,0.000000,0.238935,-105.9338,35.65834)">
    <path d="M 260.17615,149.59720 C 255.34000,168.83832 240.50022,201.60363 249.90118,211.71962 C 255.60767,216.37640 258.32331,206.84375 259.47349,200.53259 L 259.70387,200.53259 L 255.91411,232.36832 L 264.69161,232.27457 C 264.69161,232.27457 260.91045,201.67223 260.90185,200.50134 L 260.99400,200.50134 C 261.92301,205.65839 265.44822,216.33425 269.32607,212.26849 C 280.66519,200.87117 263.96806,168.43896 260.17615,149.59720 z " id="path1739" sodipodi:nodetypes="cccccccccc" style="fill:#000000;fill-opacity:1.0000000;fill-rule:evenodd;stroke-width:0.75889903;stroke-linecap:butt;stroke-linejoin:round;stroke-miterlimit:4.0000000"/>
  </g>
  <g id="g1741" style="stroke-opacity:1.0000000;stroke:none" transform="matrix(0.593136,0.000000,0.000000,0.238935,-65.97313,34.48302)">
    <path d="M 260.17615,149.59720 C 255.34000,168.83832 240.50022,201.60363 249.90118,211.71962 C 255.60767,216.37640 258.32331,206.84375 259.47349,200.53259 L 259.70387,200.53259 L 255.91411,232.36832 L 264.69161,232.27457 C 264.69161,232.27457 260.91045,201.67223 260.90185,200.50134 L 260.99400,200.50134 C 261.92301,205.65839 265.44822,216.33425 269.32607,212.26849 C 280.66519,200.87117 263.96806,168.43896 260.17615,149.59720 z " id="path1743" sodipodi:nodetypes="cccccccccc" style="fill:#000000;fill-opacity:1.0000000;fill-rule:evenodd;stroke-width:0.75889903;stroke-linecap:butt;stroke-linejoin:round;stroke-miterlimit:4.0000000"/>
  </g>
  <g id="g1745" style="stroke-opacity:1.0000000;stroke:none" transform="matrix(-0.593136,0.000000,0.000000,-0.238935,202.5319,155.1307)">
    <path d="M 260.17615,149.59720 C 255.34000,168.83832 240.50022,201.60363 249.90118,211.71962 C 255.60767,216.37640 258.32331,206.84375 259.47349,200.53259 L 259.70387,200.53259 L 255.91411,232.36832 L 264.69161,232.27457 C 264.69161,232.27457 260.91045,201.67223 260.90185,200.50134 L 260.99400,200.50134 C 261.92301,205.65839 265.44822,216.33425 269.32607,212.26849 C 280.66519,200.87117 263.96806,168.43896 260.17615,149.59720 z " id="path1747" sodipodi:nodetypes="cccccccccc" style="fill:#000000;fill-opacity:1.0000000;fill-rule:evenodd;stroke-width:0.75889903;stroke-linecap:butt;stroke-linejoin:round;stroke-miterlimit:4.0000000"/>
  </g>
  <g id="g1749" style="stroke-opacity:1.0000000;stroke:none" transform="matrix(-0.593136,0.000000,0.000000,-0.238935,244.1962,155.2129)">
    <path d="M 260.17615,149.59720 C 255.34000,168.83832 240.50022,201.60363 249.90118,211.71962 C 255.60767,216.37640 258.32331,206.84375 259.47349,200.53259 L 259.70387,200.53259 L 255.91411,232.36832 L 264.69161,232.27457 C 264.69161,232.27457 260.91045,201.67223 260.90185,200.50134 L 260.99400,200.50134 C 261.92301,205.65839 265.44822,216.33425 269.32607,212.26849 C 280.66519,200.87117 263.96806,168.43896 260.17615,149.59720 z " id="path1751" sodipodi:nodetypes="cccccccccc" style="fill:#000000;fill-opacity:1.0000000;fill-rule:evenodd;stroke-width:0.75889903;stroke-linecap:butt;stroke-linejoin:round;stroke-miterlimit:4.0000000"/>
  </g>
  <g id="g1757" style="stroke-opacity:1.0000000;stroke:none" transform="matrix(-0.593136,0.000000,0.000000,-0.238935,244.8433,185.7711)">
    <path d="M 260.17615,149.59720 C 255.34000,168.83832 240.50022,201.60363 249.90118,211.71962 C 255.60767,216.37640 258.32331,206.84375 259.47349,200.53259 L 259.70387,200.53259 C 259.69522,201.71931 259.49057,224.93251 258.88602,226.30607 C 257.55965,229.31954 255.87955,229.08720 255.87955,229.08720 L 255.91411,232.36832 L 264.69161,232.27457 L 264.72617,229.02470 C 264.72617,229.02470 263.05759,229.22580 261.73122,226.21232 C 261.12658,224.83857 260.91045,201.67223 260.90185,200.50134 L 260.99400,200.50134 C 261.92301,205.65839 265.44822,216.33425 269.32607,212.26849 C 280.66519,200.87117 263.96806,168.43896 260.17615,149.59720 z " id="path1759" style="fill:#000000;fill-opacity:1.0000000;fill-rule:evenodd;stroke-width:0.75889903;stroke-linecap:butt;stroke-linejoin:round;stroke-miterlimit:4.0000000"/>
  </g>
  <g id="g1761" style="stroke-opacity:1.0000000;stroke:none" transform="matrix(-0.593136,0.000000,0.000000,-0.238935,203.7073,185.7711)">
    <path d="M 260.17615,149.59720 C 255.34000,168.83832 240.50022,201.60363 249.90118,211.71962 C 255.60767,216.37640 258.32331,206.84375 259.47349,200.53259 L 259.70387,200.53259 L 255.91411,232.36832 L 264.69161,232.27457 C 264.69161,232.27457 260.91045,201.67223 260.90185,200.50134 L 260.99400,200.50134 C 261.92301,205.65839 265.44822,216.33425 269.32607,212.26849 C 280.66519,200.87117 263.96806,168.43896 260.17615,149.59720 z " id="path1763" sodipodi:nodetypes="cccccccccc" style="fill:#000000;fill-opacity:1.0000000;fill-rule:evenodd;stroke-width:0.75889903;stroke-linecap:butt;stroke-linejoin:round;stroke-miterlimit:4.0000000"/>
  </g>
  <g id="g5581" transform="translate(351.5000,184.5000)"/>
  <path d="M 20.644539,48.665000 C 15.720220,56.489660 0.60988027,69.814120 10.182240,73.927920 C 15.992770,75.821660 18.757920,71.945080 19.929069,69.378570 L 20.163649,69.378570 L 16.304800,82.325000 L 25.242329,82.286872 C 25.242329,82.286872 21.392229,69.842010 21.383469,69.365850 L 21.477309,69.365850 C 22.423249,71.463040 26.012729,75.804530 29.961289,74.151130 C 41.507139,69.516260 24.505589,56.327250 20.644539,48.665000 z " id="path1561" sodipodi:nodetypes="cccccccccc" style="fill:#000000;fill-opacity:1.0000000;fill-rule:evenodd;stroke:none;stroke-width:0.48046079;stroke-linecap:butt;stroke-linejoin:round;stroke-miterlimit:4.0000000;stroke-opacity:1.0000000"/>
  <path d="M 12.164173,41.574973 L 12.164173,36.029151 C 13.183115,36.605176 14.157756,37.040530 15.088106,37.335235 C 16.018438,37.616545 16.937704,37.757205 17.845904,37.757194 C 19.750877,37.757205 21.234998,37.120901 22.298257,35.848305 C 23.361490,34.562324 23.987249,32.660143 24.175552,30.141740 C 23.422403,30.811532 22.619425,31.313873 21.766628,31.648753 C 20.913803,31.983654 19.988999,32.151105 18.992217,32.151094 C 16.455921,32.151105 14.406963,31.260293 12.845316,29.478646 C 11.294745,27.683638 10.519464,25.325999 10.519464,22.405719 C 10.519464,19.177372 11.383355,16.592005 13.111127,14.649606 C 14.849974,12.707250 17.175826,11.736067 20.088693,11.736034 C 23.322718,11.736067 25.825781,13.055547 27.597880,15.694473 C 29.369935,18.333443 30.255975,22.064142 30.255993,26.886581 C 30.255975,31.843005 29.220421,35.741143 27.149322,38.581030 C 25.078187,41.407522 22.237326,42.820768 18.626731,42.820768 C 17.463796,42.820768 16.350708,42.713606 15.287466,42.499273 C 14.224215,42.298345 13.183115,41.990234 12.164173,41.574973 M 20.055468,27.127705 C 21.174076,27.127716 22.015816,26.692362 22.580680,25.821621 C 23.145517,24.937517 23.427940,23.618049 23.427959,21.863193 C 23.427940,20.121765 23.145517,18.808994 22.580680,17.924858 C 22.015816,17.040765 21.174076,16.598702 20.055468,16.598680 C 18.936833,16.598702 18.095092,17.040765 17.530255,17.924858 C 16.965391,18.808994 16.682968,20.121765 16.682977,21.863193 C 16.682968,23.618049 16.965391,24.937517 17.530255,25.821621 C 18.095092,26.692362 18.936833,27.127716 20.055468,27.127705" id="text1768" style="font-size:37.418446;font-style:normal;font-variant:normal;font-weight:bold;font-stretch:normal;fill:#0c0c0c;fill-opacity:1.0000000;stroke:none;stroke-width:1.0000000px;stroke-linecap:butt;stroke-linejoin:miter;stroke-opacity:1.0000000;font-family:Bitstream Vera Sans;text-anchor:start;writing-mode:lr-tb"/>
  <path d="M 118.03546,140.00000 C 122.95978,132.17534 138.07012,118.85088 128.49776,114.73707 C 122.68723,112.84334 119.92208,116.71992 118.75093,119.28643 L 118.51635,119.28643 L 122.37520,106.34000 L 113.43767,106.37813 C 113.43767,106.37813 117.28777,118.82299 117.29653,119.29915 L 117.20270,119.29915 C 116.25675,117.20196 112.66726,112.86047 108.71871,114.51387 C 97.172860,119.14874 114.17441,132.33775 118.03546,140.00000 z " id="path19317" sodipodi:nodetypes="cccccccccc" style="fill:#000000;fill-opacity:1.0000000;fill-rule:evenodd;stroke:none;stroke-width:0.48046079;stroke-linecap:butt;stroke-linejoin:round;stroke-miterlimit:4.0000000;stroke-opacity:1.0000000"/>
  <path d="M 126.51601,147.59110 L 126.51601,153.13692 C 125.49707,152.56090 124.52243,152.12554 123.59209,151.83084 C 122.66175,151.54952 121.74248,151.40887 120.83428,151.40887 C 118.92931,151.40887 117.44520,152.04517 116.38194,153.31776 C 115.31871,154.60374 114.69294,156.50593 114.50464,159.02433 C 115.25779,158.35454 116.06076,157.85220 116.91356,157.51732 C 117.76638,157.18241 118.69119,157.01497 119.68797,157.01498 C 122.22427,157.01497 124.27323,157.90578 125.83487,159.68742 C 127.38544,161.48243 128.16073,163.84007 128.16072,166.76035 C 128.16073,169.98870 127.29684,172.57406 125.56906,174.51647 C 123.83021,176.45882 121.50436,177.43000 118.59150,177.43003 C 115.35747,177.43000 112.85442,176.11053 111.08232,173.47160 C 109.31025,170.83262 108.42422,167.10192 108.42419,162.27949 C 108.42422,157.32307 109.45977,153.42492 111.53087,150.58504 C 113.60201,147.75854 116.44287,146.34530 120.05346,146.34530 C 121.21640,146.34530 122.32949,146.45246 123.39273,146.66679 C 124.45598,146.86773 125.49707,147.17583 126.51601,147.59110 M 118.62473,162.03837 C 117.50611,162.03835 116.66438,162.47371 116.09952,163.34445 C 115.53468,164.22855 115.25226,165.54802 115.25224,167.30288 C 115.25226,169.04430 115.53468,170.35708 116.09952,171.24122 C 116.66438,172.12531 117.50611,172.56737 118.62473,172.56739 C 119.74336,172.56737 120.58509,172.12531 121.14994,171.24122 C 121.71480,170.35708 121.99722,169.04430 121.99722,167.30288 C 121.99722,165.54802 121.71480,164.22855 121.14994,163.34445 C 120.58509,162.47371 119.74336,162.03835 118.62473,162.03837" id="text19319" style="font-size:37.418446;font-style:normal;font-variant:normal;font-weight:bold;font-stretch:normal;fill:#0c0c0c;fill-opacity:1.0000000;stroke:none;stroke-width:1.0000000px;stroke-linecap:butt;stroke-linejoin:miter;stroke-opacity:1.0000000;font-family:Bitstream Vera Sans;text-anchor:start;writing-mode:lr-tb"/>
</svg>
